%TF.GenerationSoftware,KiCad,Pcbnew,(6.0.2)*%
%TF.CreationDate,2022-09-17T11:41:15-05:00*%
%TF.ProjectId,REF2160,52454632-3136-4302-9e6b-696361645f70,rev?*%
%TF.SameCoordinates,Original*%
%TF.FileFunction,Legend,Top*%
%TF.FilePolarity,Positive*%
%FSLAX46Y46*%
G04 Gerber Fmt 4.6, Leading zero omitted, Abs format (unit mm)*
G04 Created by KiCad (PCBNEW (6.0.2)) date 2022-09-17 11:41:15*
%MOMM*%
%LPD*%
G01*
G04 APERTURE LIST*
%ADD10C,0.150000*%
%ADD11C,0.120000*%
%ADD12C,0.100000*%
G04 APERTURE END LIST*
D10*
X158874571Y-111970333D02*
X158874571Y-111637000D01*
X159398380Y-111494142D02*
X159398380Y-111970333D01*
X158398380Y-111970333D01*
X158398380Y-111494142D01*
X159398380Y-111065571D02*
X158398380Y-111065571D01*
X159398380Y-110494142D01*
X158398380Y-110494142D01*
X158493619Y-110065571D02*
X158446000Y-110017952D01*
X158398380Y-109922714D01*
X158398380Y-109684619D01*
X158446000Y-109589380D01*
X158493619Y-109541761D01*
X158588857Y-109494142D01*
X158684095Y-109494142D01*
X158826952Y-109541761D01*
X159398380Y-110113190D01*
X159398380Y-109494142D01*
X159398380Y-109017952D02*
X159398380Y-108827476D01*
X159350761Y-108732238D01*
X159303142Y-108684619D01*
X159160285Y-108589380D01*
X158969809Y-108541761D01*
X158588857Y-108541761D01*
X158493619Y-108589380D01*
X158446000Y-108637000D01*
X158398380Y-108732238D01*
X158398380Y-108922714D01*
X158446000Y-109017952D01*
X158493619Y-109065571D01*
X158588857Y-109113190D01*
X158826952Y-109113190D01*
X158922190Y-109065571D01*
X158969809Y-109017952D01*
X159017428Y-108922714D01*
X159017428Y-108732238D01*
X158969809Y-108637000D01*
X158922190Y-108589380D01*
X158826952Y-108541761D01*
X159398380Y-107637000D02*
X159398380Y-108113190D01*
X158398380Y-108113190D01*
X158398380Y-107446523D02*
X159398380Y-107113190D01*
X158398380Y-106779857D01*
X158398380Y-106541761D02*
X158398380Y-105922714D01*
X158779333Y-106256047D01*
X158779333Y-106113190D01*
X158826952Y-106017952D01*
X158874571Y-105970333D01*
X158969809Y-105922714D01*
X159207904Y-105922714D01*
X159303142Y-105970333D01*
X159350761Y-106017952D01*
X159398380Y-106113190D01*
X159398380Y-106398904D01*
X159350761Y-106494142D01*
X159303142Y-106541761D01*
X158493619Y-105541761D02*
X158446000Y-105494142D01*
X158398380Y-105398904D01*
X158398380Y-105160809D01*
X158446000Y-105065571D01*
X158493619Y-105017952D01*
X158588857Y-104970333D01*
X158684095Y-104970333D01*
X158826952Y-105017952D01*
X159398380Y-105589380D01*
X159398380Y-104970333D01*
X158398380Y-104351285D02*
X158398380Y-104256047D01*
X158446000Y-104160809D01*
X158493619Y-104113190D01*
X158588857Y-104065571D01*
X158779333Y-104017952D01*
X159017428Y-104017952D01*
X159207904Y-104065571D01*
X159303142Y-104113190D01*
X159350761Y-104160809D01*
X159398380Y-104256047D01*
X159398380Y-104351285D01*
X159350761Y-104446523D01*
X159303142Y-104494142D01*
X159207904Y-104541761D01*
X159017428Y-104589380D01*
X158779333Y-104589380D01*
X158588857Y-104541761D01*
X158493619Y-104494142D01*
X158446000Y-104446523D01*
X158398380Y-104351285D01*
X158874571Y-103256047D02*
X158922190Y-103113190D01*
X158969809Y-103065571D01*
X159065047Y-103017952D01*
X159207904Y-103017952D01*
X159303142Y-103065571D01*
X159350761Y-103113190D01*
X159398380Y-103208428D01*
X159398380Y-103589380D01*
X158398380Y-103589380D01*
X158398380Y-103256047D01*
X158446000Y-103160809D01*
X158493619Y-103113190D01*
X158588857Y-103065571D01*
X158684095Y-103065571D01*
X158779333Y-103113190D01*
X158826952Y-103160809D01*
X158874571Y-103256047D01*
X158874571Y-103589380D01*
X158398380Y-102732238D02*
X158398380Y-102160809D01*
X159398380Y-102446523D02*
X158398380Y-102446523D01*
X146604285Y-106714285D02*
X145854285Y-106714285D01*
X145854285Y-106428571D01*
X145890000Y-106357142D01*
X145925714Y-106321428D01*
X145997142Y-106285714D01*
X146104285Y-106285714D01*
X146175714Y-106321428D01*
X146211428Y-106357142D01*
X146247142Y-106428571D01*
X146247142Y-106714285D01*
X146604285Y-105964285D02*
X145854285Y-105964285D01*
X146532857Y-105178571D02*
X146568571Y-105214285D01*
X146604285Y-105321428D01*
X146604285Y-105392857D01*
X146568571Y-105500000D01*
X146497142Y-105571428D01*
X146425714Y-105607142D01*
X146282857Y-105642857D01*
X146175714Y-105642857D01*
X146032857Y-105607142D01*
X145961428Y-105571428D01*
X145890000Y-105500000D01*
X145854285Y-105392857D01*
X145854285Y-105321428D01*
X145890000Y-105214285D01*
X145925714Y-105178571D01*
X146604285Y-104464285D02*
X146604285Y-104892857D01*
X146604285Y-104678571D02*
X145854285Y-104678571D01*
X145961428Y-104750000D01*
X146032857Y-104821428D01*
X146068571Y-104892857D01*
X146175714Y-104035714D02*
X146140000Y-104107142D01*
X146104285Y-104142857D01*
X146032857Y-104178571D01*
X145997142Y-104178571D01*
X145925714Y-104142857D01*
X145890000Y-104107142D01*
X145854285Y-104035714D01*
X145854285Y-103892857D01*
X145890000Y-103821428D01*
X145925714Y-103785714D01*
X145997142Y-103750000D01*
X146032857Y-103750000D01*
X146104285Y-103785714D01*
X146140000Y-103821428D01*
X146175714Y-103892857D01*
X146175714Y-104035714D01*
X146211428Y-104107142D01*
X146247142Y-104142857D01*
X146318571Y-104178571D01*
X146461428Y-104178571D01*
X146532857Y-104142857D01*
X146568571Y-104107142D01*
X146604285Y-104035714D01*
X146604285Y-103892857D01*
X146568571Y-103821428D01*
X146532857Y-103785714D01*
X146461428Y-103750000D01*
X146318571Y-103750000D01*
X146247142Y-103785714D01*
X146211428Y-103821428D01*
X146175714Y-103892857D01*
X146211428Y-103178571D02*
X146211428Y-103428571D01*
X146604285Y-103428571D02*
X145854285Y-103428571D01*
X145854285Y-103071428D01*
X146604285Y-102392857D02*
X146604285Y-102821428D01*
X146604285Y-102607142D02*
X145854285Y-102607142D01*
X145961428Y-102678571D01*
X146032857Y-102750000D01*
X146068571Y-102821428D01*
X146104285Y-101750000D02*
X146604285Y-101750000D01*
X145818571Y-101928571D02*
X146354285Y-102107142D01*
X146354285Y-101642857D01*
X146604285Y-101357142D02*
X145854285Y-101357142D01*
X146604285Y-100928571D02*
X146175714Y-101250000D01*
X145854285Y-100928571D02*
X146282857Y-101357142D01*
X145854285Y-100250000D02*
X145854285Y-100607142D01*
X146211428Y-100642857D01*
X146175714Y-100607142D01*
X146140000Y-100535714D01*
X146140000Y-100357142D01*
X146175714Y-100285714D01*
X146211428Y-100250000D01*
X146282857Y-100214285D01*
X146461428Y-100214285D01*
X146532857Y-100250000D01*
X146568571Y-100285714D01*
X146604285Y-100357142D01*
X146604285Y-100535714D01*
X146568571Y-100607142D01*
X146532857Y-100642857D01*
X145854285Y-99750000D02*
X145854285Y-99678571D01*
X145890000Y-99607142D01*
X145925714Y-99571428D01*
X145997142Y-99535714D01*
X146140000Y-99500000D01*
X146318571Y-99500000D01*
X146461428Y-99535714D01*
X146532857Y-99571428D01*
X146568571Y-99607142D01*
X146604285Y-99678571D01*
X146604285Y-99750000D01*
X146568571Y-99821428D01*
X146532857Y-99857142D01*
X146461428Y-99892857D01*
X146318571Y-99928571D01*
X146140000Y-99928571D01*
X145997142Y-99892857D01*
X145925714Y-99857142D01*
X145890000Y-99821428D01*
X145854285Y-99750000D01*
X147936666Y-106594380D02*
X147365238Y-106594380D01*
X147650952Y-106594380D02*
X147650952Y-105594380D01*
X147555714Y-105737238D01*
X147460476Y-105832476D01*
X147365238Y-105880095D01*
X148365238Y-106213428D02*
X149127142Y-106213428D01*
X153437714Y-115156380D02*
X152866285Y-115156380D01*
X153152000Y-115156380D02*
X153152000Y-114156380D01*
X153056761Y-114299238D01*
X152961523Y-114394476D01*
X152866285Y-114442095D01*
X153152000Y-117099714D02*
X153152000Y-115671142D01*
%TO.C,C4*%
X143301333Y-109083142D02*
X143253714Y-109130761D01*
X143110857Y-109178380D01*
X143015619Y-109178380D01*
X142872761Y-109130761D01*
X142777523Y-109035523D01*
X142729904Y-108940285D01*
X142682285Y-108749809D01*
X142682285Y-108606952D01*
X142729904Y-108416476D01*
X142777523Y-108321238D01*
X142872761Y-108226000D01*
X143015619Y-108178380D01*
X143110857Y-108178380D01*
X143253714Y-108226000D01*
X143301333Y-108273619D01*
X144158476Y-108511714D02*
X144158476Y-109178380D01*
X143920380Y-108130761D02*
X143682285Y-108845047D01*
X144301333Y-108845047D01*
%TO.C,C2*%
X145910142Y-115145666D02*
X145957761Y-115193285D01*
X146005380Y-115336142D01*
X146005380Y-115431380D01*
X145957761Y-115574238D01*
X145862523Y-115669476D01*
X145767285Y-115717095D01*
X145576809Y-115764714D01*
X145433952Y-115764714D01*
X145243476Y-115717095D01*
X145148238Y-115669476D01*
X145053000Y-115574238D01*
X145005380Y-115431380D01*
X145005380Y-115336142D01*
X145053000Y-115193285D01*
X145100619Y-115145666D01*
X145100619Y-114764714D02*
X145053000Y-114717095D01*
X145005380Y-114621857D01*
X145005380Y-114383761D01*
X145053000Y-114288523D01*
X145100619Y-114240904D01*
X145195857Y-114193285D01*
X145291095Y-114193285D01*
X145433952Y-114240904D01*
X146005380Y-114812333D01*
X146005380Y-114193285D01*
%TO.C,C1*%
X137658333Y-115411142D02*
X137610714Y-115458761D01*
X137467857Y-115506380D01*
X137372619Y-115506380D01*
X137229761Y-115458761D01*
X137134523Y-115363523D01*
X137086904Y-115268285D01*
X137039285Y-115077809D01*
X137039285Y-114934952D01*
X137086904Y-114744476D01*
X137134523Y-114649238D01*
X137229761Y-114554000D01*
X137372619Y-114506380D01*
X137467857Y-114506380D01*
X137610714Y-114554000D01*
X137658333Y-114601619D01*
X138610714Y-115506380D02*
X138039285Y-115506380D01*
X138325000Y-115506380D02*
X138325000Y-114506380D01*
X138229761Y-114649238D01*
X138134523Y-114744476D01*
X138039285Y-114792095D01*
%TO.C,U4*%
X138048095Y-110703380D02*
X138048095Y-111512904D01*
X138095714Y-111608142D01*
X138143333Y-111655761D01*
X138238571Y-111703380D01*
X138429047Y-111703380D01*
X138524285Y-111655761D01*
X138571904Y-111608142D01*
X138619523Y-111512904D01*
X138619523Y-110703380D01*
X139524285Y-111036714D02*
X139524285Y-111703380D01*
X139286190Y-110655761D02*
X139048095Y-111370047D01*
X139667142Y-111370047D01*
%TO.C,C3*%
X149952142Y-115115666D02*
X149999761Y-115163285D01*
X150047380Y-115306142D01*
X150047380Y-115401380D01*
X149999761Y-115544238D01*
X149904523Y-115639476D01*
X149809285Y-115687095D01*
X149618809Y-115734714D01*
X149475952Y-115734714D01*
X149285476Y-115687095D01*
X149190238Y-115639476D01*
X149095000Y-115544238D01*
X149047380Y-115401380D01*
X149047380Y-115306142D01*
X149095000Y-115163285D01*
X149142619Y-115115666D01*
X149047380Y-114782333D02*
X149047380Y-114163285D01*
X149428333Y-114496619D01*
X149428333Y-114353761D01*
X149475952Y-114258523D01*
X149523571Y-114210904D01*
X149618809Y-114163285D01*
X149856904Y-114163285D01*
X149952142Y-114210904D01*
X149999761Y-114258523D01*
X150047380Y-114353761D01*
X150047380Y-114639476D01*
X149999761Y-114734714D01*
X149952142Y-114782333D01*
%TO.C,X1*%
X147345476Y-111143380D02*
X148012142Y-112143380D01*
X148012142Y-111143380D02*
X147345476Y-112143380D01*
X148916904Y-112143380D02*
X148345476Y-112143380D01*
X148631190Y-112143380D02*
X148631190Y-111143380D01*
X148535952Y-111286238D01*
X148440714Y-111381476D01*
X148345476Y-111429095D01*
%TO.C,C5*%
X156518333Y-96791142D02*
X156470714Y-96838761D01*
X156327857Y-96886380D01*
X156232619Y-96886380D01*
X156089761Y-96838761D01*
X155994523Y-96743523D01*
X155946904Y-96648285D01*
X155899285Y-96457809D01*
X155899285Y-96314952D01*
X155946904Y-96124476D01*
X155994523Y-96029238D01*
X156089761Y-95934000D01*
X156232619Y-95886380D01*
X156327857Y-95886380D01*
X156470714Y-95934000D01*
X156518333Y-95981619D01*
X157423095Y-95886380D02*
X156946904Y-95886380D01*
X156899285Y-96362571D01*
X156946904Y-96314952D01*
X157042142Y-96267333D01*
X157280238Y-96267333D01*
X157375476Y-96314952D01*
X157423095Y-96362571D01*
X157470714Y-96457809D01*
X157470714Y-96695904D01*
X157423095Y-96791142D01*
X157375476Y-96838761D01*
X157280238Y-96886380D01*
X157042142Y-96886380D01*
X156946904Y-96838761D01*
X156899285Y-96791142D01*
%TO.C,R1*%
X145995380Y-117762666D02*
X145519190Y-118096000D01*
X145995380Y-118334095D02*
X144995380Y-118334095D01*
X144995380Y-117953142D01*
X145043000Y-117857904D01*
X145090619Y-117810285D01*
X145185857Y-117762666D01*
X145328714Y-117762666D01*
X145423952Y-117810285D01*
X145471571Y-117857904D01*
X145519190Y-117953142D01*
X145519190Y-118334095D01*
X145995380Y-116810285D02*
X145995380Y-117381714D01*
X145995380Y-117096000D02*
X144995380Y-117096000D01*
X145138238Y-117191238D01*
X145233476Y-117286476D01*
X145281095Y-117381714D01*
D11*
%TO.C,U3*%
X149803000Y-107144500D02*
X149803000Y-106744641D01*
X149803000Y-99397500D02*
X143961000Y-99397500D01*
X143961000Y-106744638D02*
X143961000Y-107144500D01*
X149803000Y-99797362D02*
X149803000Y-99397500D01*
X143961000Y-107144500D02*
X149803000Y-107144500D01*
X143961000Y-99397500D02*
X143961000Y-99797359D01*
D12*
X141916300Y-106386498D02*
X141916300Y-106005498D01*
X141916300Y-106005498D02*
X142170300Y-106005498D01*
X142170300Y-106005498D02*
X142170300Y-106386498D01*
X142170300Y-106386498D02*
X141916300Y-106386498D01*
G36*
X142170300Y-106386498D02*
G01*
X141916300Y-106386498D01*
X141916300Y-106005498D01*
X142170300Y-106005498D01*
X142170300Y-106386498D01*
G37*
X142170300Y-106386498D02*
X141916300Y-106386498D01*
X141916300Y-106005498D01*
X142170300Y-106005498D01*
X142170300Y-106386498D01*
X151847700Y-100536502D02*
X151847700Y-100155502D01*
X151847700Y-100155502D02*
X151593700Y-100155502D01*
X151593700Y-100155502D02*
X151593700Y-100536502D01*
X151593700Y-100536502D02*
X151847700Y-100536502D01*
G36*
X151847700Y-100536502D02*
G01*
X151593700Y-100536502D01*
X151593700Y-100155502D01*
X151847700Y-100155502D01*
X151847700Y-100536502D01*
G37*
X151847700Y-100536502D02*
X151593700Y-100536502D01*
X151593700Y-100155502D01*
X151847700Y-100155502D01*
X151847700Y-100536502D01*
%TD*%
M02*
