M48
; DRILL file {KiCad (6.0.2)} date Sat Sep 17 11:41:19 2022
; FORMAT={-:-/ absolute / metric / decimal}
; #@! TF.CreationDate,2022-09-17T11:41:19-05:00
; #@! TF.GenerationSoftware,Kicad,Pcbnew,(6.0.2)
; #@! TF.FileFunction,Plated,1,4,PTH
FMAT,2
METRIC
; #@! TA.AperFunction,Plated,PTH,ViaDrill
T1C0.400
; #@! TA.AperFunction,Plated,PTH,ComponentDrill
T2C1.000
%
G90
G05
T1
X135.611Y-75.627
X137.387Y-75.591
X138.17Y-87.891
X138.408Y-84.232
X138.54Y-81.136
X138.754Y-101.933
X138.867Y-100.933
X139.445Y-103.485
X140.16Y-76.743
X140.657Y-112.42
X141.0Y-105.546
X141.297Y-122.663
X141.53Y-108.924
X141.628Y-75.711
X141.804Y-76.832
X142.259Y-124.521
X143.215Y-87.624
X143.215Y-90.54
X143.215Y-91.541
X143.215Y-97.304
X143.266Y-124.748
X143.57Y-82.246
X144.043Y-86.177
X144.599Y-84.666
X144.813Y-83.184
X144.82Y-102.175
X145.071Y-124.759
X145.237Y-79.309
X145.265Y-98.918
X145.412Y-100.046
X145.565Y-89.868
X145.565Y-87.395
X145.745Y-82.226
X146.395Y-91.09
X147.071Y-75.756
X147.08Y-104.771
X147.097Y-80.826
X147.178Y-79.728
X147.47Y-102.226
X147.925Y-78.993
X148.133Y-124.752
X148.171Y-88.331
X148.333Y-116.858
X148.405Y-82.221
X148.488Y-96.573
X148.927Y-75.761
X148.97Y-104.046
X149.039Y-85.463
X149.043Y-80.552
X149.13Y-91.768
X149.52Y-73.495
X149.61Y-79.538
X149.63Y-98.365
X149.778Y-97.334
X149.785Y-83.941
X150.524Y-78.989
X150.542Y-80.06
X150.66Y-96.165
X150.812Y-82.017
X151.057Y-124.741
X151.12Y-98.774
X151.277Y-73.525
X151.564Y-89.037
X152.348Y-82.054
X152.528Y-102.839
X152.591Y-119.553
X152.62Y-124.717
X152.889Y-91.481
X153.317Y-120.411
X153.411Y-73.948
X153.918Y-113.385
X154.158Y-75.656
X154.423Y-104.692
X154.661Y-114.171
X154.676Y-101.122
X154.804Y-96.675
X154.867Y-80.159
X155.037Y-119.73
X155.3Y-90.951
X155.473Y-97.421
X155.502Y-117.0
X155.602Y-124.754
X155.69Y-78.985
X155.884Y-115.002
X156.31Y-75.656
X156.427Y-92.295
X156.44Y-96.974
X156.5Y-121.5
X158.161Y-97.332
X158.253Y-120.064
X158.412Y-100.73
X158.52Y-78.981
X158.6Y-124.733
X158.8Y-120.9
X158.88Y-79.994
X158.991Y-91.488
X159.153Y-123.329
X159.241Y-116.494
X159.448Y-92.64
X159.504Y-81.39
X159.827Y-100.216
X160.115Y-124.762
X160.239Y-79.677
X160.657Y-97.248
X160.91Y-120.69
X161.017Y-112.611
X161.122Y-116.041
X161.195Y-96.119
X161.393Y-84.014
X161.426Y-83.005
X161.59Y-121.5
X161.63Y-124.061
X161.719Y-78.969
X161.911Y-100.777
X162.11Y-92.089
X162.137Y-86.938
X162.163Y-81.241
X162.218Y-114.449
X162.22Y-75.938
X162.383Y-124.75
X163.133Y-96.762
X163.161Y-100.045
X163.435Y-116.82
X163.903Y-122.682
X163.911Y-115.116
X164.661Y-111.595
X165.371Y-81.648
X165.376Y-79.332
X165.596Y-82.809
X165.975Y-85.472
T2
X150.044Y-71.821
X153.106Y-71.823
T0
M30
