%TF.GenerationSoftware,KiCad,Pcbnew,(6.0.2)*%
%TF.CreationDate,2022-09-17T11:41:15-05:00*%
%TF.ProjectId,REF2160,52454632-3136-4302-9e6b-696361645f70,rev?*%
%TF.SameCoordinates,Original*%
%TF.FileFunction,Copper,L1,Top*%
%TF.FilePolarity,Positive*%
%FSLAX46Y46*%
G04 Gerber Fmt 4.6, Leading zero omitted, Abs format (unit mm)*
G04 Created by KiCad (PCBNEW (6.0.2)) date 2022-09-17 11:41:15*
%MOMM*%
%LPD*%
G01*
G04 APERTURE LIST*
%TA.AperFunction,SMDPad,CuDef*%
%ADD10R,0.800000X0.800000*%
%TD*%
%TA.AperFunction,SMDPad,CuDef*%
%ADD11R,1.000000X1.350000*%
%TD*%
%TA.AperFunction,SMDPad,CuDef*%
%ADD12R,0.750000X1.600000*%
%TD*%
%TA.AperFunction,SMDPad,CuDef*%
%ADD13R,0.870000X1.600000*%
%TD*%
%TA.AperFunction,SMDPad,CuDef*%
%ADD14R,0.800000X1.600000*%
%TD*%
%TA.AperFunction,SMDPad,CuDef*%
%ADD15R,1.651000X0.431800*%
%TD*%
%TA.AperFunction,SMDPad,CuDef*%
%ADD16R,2.000000X3.000000*%
%TD*%
%TA.AperFunction,SMDPad,CuDef*%
%ADD17R,0.550000X1.630000*%
%TD*%
%TA.AperFunction,SMDPad,CuDef*%
%ADD18R,0.950000X2.250000*%
%TD*%
%TA.AperFunction,SMDPad,CuDef*%
%ADD19R,1.200000X7.250000*%
%TD*%
%TA.AperFunction,SMDPad,CuDef*%
%ADD20R,1.200000X6.000000*%
%TD*%
%TA.AperFunction,SMDPad,CuDef*%
%ADD21R,1.200000X6.750000*%
%TD*%
%TA.AperFunction,SMDPad,CuDef*%
%ADD22R,1.700000X1.350000*%
%TD*%
%TA.AperFunction,SMDPad,CuDef*%
%ADD23R,0.300000X1.300000*%
%TD*%
%TA.AperFunction,ComponentPad*%
%ADD24C,1.100000*%
%TD*%
%TA.AperFunction,ViaPad*%
%ADD25C,0.800000*%
%TD*%
%TA.AperFunction,Conductor*%
%ADD26C,0.250000*%
%TD*%
G04 APERTURE END LIST*
D10*
%TO.P,C4,1*%
%TO.N,/GND*%
X145116000Y-108636000D03*
%TO.P,C4,2*%
%TO.N,/PIC.VUSB*%
X146425000Y-108635000D03*
%TD*%
%TO.P,C2,1*%
%TO.N,/PIC.CLKOUT*%
X146739000Y-115602000D03*
%TO.P,C2,2*%
%TO.N,/GND*%
X146738000Y-114293000D03*
%TD*%
D11*
%TO.P,C1,1*%
%TO.N,/GND*%
X139477000Y-114946000D03*
%TO.P,C1,2*%
%TO.N,/XC.Vout*%
X141302000Y-114946000D03*
%TD*%
D12*
%TO.P,U4,1,GND*%
%TO.N,/GND*%
X139635000Y-113201000D03*
D13*
%TO.P,U4,2,VO*%
%TO.N,/XC.Vout*%
X141702000Y-113195000D03*
D14*
%TO.P,U4,3,VI*%
%TO.N,/VCC*%
X140708000Y-111014000D03*
%TD*%
D15*
%TO.P,U3,1,VDD*%
%TO.N,/VCC*%
X150514200Y-106196000D03*
%TO.P,U3,2,RA5/OSC1/CLKIN*%
%TO.N,/PIC.CLKIN*%
X150514200Y-105545999D03*
%TO.P,U3,3,RA4/AN3/OSC2/CLKOUT*%
%TO.N,/PIC.CLKOUT*%
X150514200Y-104896001D03*
%TO.P,U3,4,RA3/\u002AMCLR/VPP*%
%TO.N,unconnected-(U3-Pad4)*%
X150514200Y-104245999D03*
%TO.P,U3,5,RC5/CCP1/P1A/T0CKI*%
%TO.N,/PIC.RC5*%
X150514200Y-103596001D03*
%TO.P,U3,6,RC4/P1B/C12OUT/SRQ*%
%TO.N,/PIC.RC4*%
X150514200Y-102946002D03*
%TO.P,U3,7,RC3/AN7/P1C/C12IN3-/PGM*%
%TO.N,/PIC.RC3*%
X150514200Y-102296001D03*
%TO.P,U3,8,RC6/AN8/\u002ASS/T13CKI/T1OSCI*%
%TO.N,/PIC.RC6*%
X150514200Y-101646002D03*
%TO.P,U3,9,RC7/AN9/SDO/T1OSCO*%
%TO.N,/PIC.RC7*%
X150514200Y-100996001D03*
%TO.P,U3,10,RB7/TX/CK*%
%TO.N,unconnected-(U3-Pad10)*%
X150514200Y-100346002D03*
%TO.P,U3,11,RB6/SCK/SCL*%
%TO.N,/PIC.RB6*%
X143249800Y-100346000D03*
%TO.P,U3,12,RB5/AN11/RX/DT*%
%TO.N,unconnected-(U3-Pad12)*%
X143249800Y-100995998D03*
%TO.P,U3,13,RB4/AN10/SDI/SDA*%
%TO.N,/PIC.RB4*%
X143249800Y-101645999D03*
%TO.P,U3,14,RC2/AN6/P1D/C12IN2-/CVREF/INT2*%
%TO.N,/PIC.RC2*%
X143249800Y-102295998D03*
%TO.P,U3,15,RC1/AN5/C12IN1-/INT1/VREFRC2/*%
%TO.N,/PIC.RC1*%
X143249800Y-102945999D03*
%TO.P,U3,16,RC0/AN4/C12IN+/INT0/VREF+*%
%TO.N,/PIC.RC0*%
X143249800Y-103595998D03*
%TO.P,U3,17,VUSB*%
%TO.N,/PIC.VUSB*%
X143249800Y-104245999D03*
%TO.P,U3,18,RA1/D-/PGC*%
%TO.N,/USB.D-*%
X143249800Y-104895998D03*
%TO.P,U3,19,RA0/D+/PGD*%
%TO.N,/USB.D+*%
X143249800Y-105545999D03*
%TO.P,U3,20,VSS*%
%TO.N,/GND*%
X143249800Y-106195998D03*
%TD*%
D16*
%TO.P,J1,1,Pin_1*%
%TO.N,/GND*%
X147770000Y-73037000D03*
X155194000Y-73035000D03*
D17*
X150233000Y-75375000D03*
%TO.P,J1,2,Pin_2*%
%TO.N,/USB.D+*%
X151067000Y-75380000D03*
%TO.P,J1,3,Pin_3*%
%TO.N,/USB.D-*%
X151937000Y-75380000D03*
%TO.P,J1,4,Pin_4*%
%TO.N,/USB.VCC*%
X152811000Y-75379000D03*
%TD*%
D18*
%TO.P,U6,1,GND*%
%TO.N,/GND*%
X163929000Y-94392000D03*
%TO.P,U6,2,CLK*%
%TO.N,/CLK*%
X162459000Y-94385000D03*
%TO.P,U6,3,N/C*%
%TO.N,unconnected-(U6-Pad3)*%
X160950000Y-94389000D03*
%TO.P,U6,4,CS1*%
%TO.N,/Cart.CS1*%
X159448000Y-94389000D03*
%TO.P,U6,5,Reset*%
%TO.N,/Cart.Reset*%
X157938000Y-94390000D03*
%TO.P,U6,6,CS2*%
%TO.N,/Cart.CS2*%
X156427000Y-94390000D03*
%TO.P,U6,7,IRQ*%
%TO.N,/IRQ*%
X154958000Y-94389000D03*
%TO.P,U6,8,VCC*%
%TO.N,/VCC*%
X153450000Y-94394000D03*
%TO.P,U6,9,D0*%
%TO.N,/D0*%
X151941000Y-94388000D03*
%TO.P,U6,10,D1*%
%TO.N,/D1*%
X150438000Y-94391000D03*
%TO.P,U6,11,D2*%
%TO.N,/D2*%
X148966000Y-94390000D03*
%TO.P,U6,12,D3*%
%TO.N,/D3*%
X147457000Y-94392000D03*
%TO.P,U6,13,D4*%
%TO.N,/D4*%
X145912000Y-94395000D03*
%TO.P,U6,14,D5*%
%TO.N,/D5*%
X144439000Y-94390000D03*
%TO.P,U6,15,D6*%
%TO.N,/D6*%
X142937000Y-94394000D03*
%TO.P,U6,16,D7*%
%TO.N,/D7*%
X141390000Y-94386000D03*
%TO.P,U6,17,GND*%
%TO.N,/GND*%
X139876000Y-94389000D03*
%TD*%
D10*
%TO.P,C3,1*%
%TO.N,/PIC.CLKIN*%
X148329000Y-115599000D03*
%TO.P,C3,2*%
%TO.N,/GND*%
X148328000Y-114290000D03*
%TD*%
D19*
%TO.P,U1,1,GND*%
%TO.N,/GND*%
X139048000Y-129001000D03*
D20*
%TO.P,U1,2,CLK*%
%TO.N,/CLK*%
X140590000Y-128355000D03*
%TO.P,U1,3,N/C*%
%TO.N,unconnected-(U1-Pad3)*%
X142105000Y-128363000D03*
%TO.P,U1,4,CS1*%
%TO.N,/Sys.CS1*%
X143564000Y-128355000D03*
%TO.P,U1,5,Reset*%
%TO.N,/Sys.Reset*%
X145071000Y-128362000D03*
%TO.P,U1,6,CS2*%
%TO.N,/Sys.CS2*%
X146634000Y-128362000D03*
%TO.P,U1,7,IRQ*%
%TO.N,/IRQ*%
X148133000Y-128362000D03*
D21*
%TO.P,U1,8,VCC*%
%TO.N,/VCC*%
X149560000Y-128705000D03*
D20*
%TO.P,U1,9,D0*%
%TO.N,/D0*%
X151057000Y-128370000D03*
%TO.P,U1,10,D1*%
%TO.N,/D1*%
X152620000Y-128370000D03*
%TO.P,U1,11,D2*%
%TO.N,/D2*%
X154127000Y-128362000D03*
%TO.P,U1,12,D3*%
%TO.N,/D3*%
X155602000Y-128362000D03*
%TO.P,U1,13,D4*%
%TO.N,/D4*%
X157101000Y-128362000D03*
%TO.P,U1,14,D5*%
%TO.N,/D5*%
X158600000Y-128354000D03*
%TO.P,U1,15,D6*%
%TO.N,/D6*%
X160115000Y-128362000D03*
%TO.P,U1,16,D7*%
%TO.N,/D7*%
X161630000Y-128362000D03*
D19*
%TO.P,U1,17,GND*%
%TO.N,/GND*%
X163137000Y-128995000D03*
%TD*%
D22*
%TO.P,X1,1,Tri-State*%
%TO.N,/PIC.CLKOUT*%
X146027000Y-112965000D03*
%TO.P,X1,2,GND*%
%TO.N,unconnected-(X1-Pad2)*%
X150197000Y-112965000D03*
%TO.P,X1,3,OUT*%
%TO.N,/PIC.CLKIN*%
X150196000Y-110463000D03*
%TO.P,X1,4,VDD*%
%TO.N,unconnected-(X1-Pad4)*%
X146029000Y-110463000D03*
%TD*%
D10*
%TO.P,C5,1*%
%TO.N,/VCC*%
X158227000Y-96294000D03*
%TO.P,C5,2*%
%TO.N,/GND*%
X159536000Y-96293000D03*
%TD*%
%TO.P,R1,1*%
%TO.N,/IRQ*%
X146741000Y-118242000D03*
%TO.P,R1,2*%
%TO.N,/GND*%
X146740000Y-116933000D03*
%TD*%
D23*
%TO.P,U2,1,A15*%
%TO.N,/Eon.A15*%
X153161000Y-118472000D03*
%TO.P,U2,2,A14*%
%TO.N,/Eon.A14*%
X153661000Y-118472000D03*
%TO.P,U2,3,A13*%
%TO.N,/Eon.A13*%
X154161000Y-118472000D03*
%TO.P,U2,4,A12*%
%TO.N,/Eon.A12*%
X154661000Y-118472000D03*
%TO.P,U2,5,A11*%
%TO.N,/Eon.A11*%
X155161000Y-118472000D03*
%TO.P,U2,6,A10*%
%TO.N,/Eon.A10*%
X155661000Y-118472000D03*
%TO.P,U2,7,A9*%
%TO.N,/Eon.A9*%
X156161000Y-118472000D03*
%TO.P,U2,8,A8*%
%TO.N,/Eon.A8*%
X156661000Y-118472000D03*
%TO.P,U2,9,A19*%
%TO.N,/Eon.A19*%
X157161000Y-118472000D03*
%TO.P,U2,10,A20*%
%TO.N,/Eon.A20*%
X157661000Y-118472000D03*
%TO.P,U2,11,WE#*%
%TO.N,/Eon.WE*%
X158161000Y-118472000D03*
%TO.P,U2,12,RESET#*%
%TO.N,/VCC*%
X158661000Y-118472000D03*
%TO.P,U2,13,N/C*%
%TO.N,unconnected-(U2-Pad13)*%
X159161000Y-118472000D03*
%TO.P,U2,14,WP#/ACC*%
%TO.N,/VCC*%
X159661000Y-118472000D03*
%TO.P,U2,15,RY/BY#*%
%TO.N,unconnected-(U2-Pad15)*%
X160161000Y-118472000D03*
%TO.P,U2,16,A18*%
%TO.N,/Eon.A18*%
X160661000Y-118472000D03*
%TO.P,U2,17,A17*%
%TO.N,/Eon.A17*%
X161161000Y-118472000D03*
%TO.P,U2,18,A7*%
%TO.N,/Eon.A7*%
X161661000Y-118472000D03*
%TO.P,U2,19,A6*%
%TO.N,/Eon.A6*%
X162161000Y-118472000D03*
%TO.P,U2,20,A5*%
%TO.N,/Eon.A5*%
X162661000Y-118472000D03*
%TO.P,U2,21,A4*%
%TO.N,/Eon.A4*%
X163161000Y-118472000D03*
%TO.P,U2,22,A3*%
%TO.N,/Eon.A3*%
X163661000Y-118472000D03*
%TO.P,U2,23,A2*%
%TO.N,/Eon.A2*%
X164161000Y-118472000D03*
%TO.P,U2,24,A1*%
%TO.N,/Eon.A1*%
X164661000Y-118472000D03*
%TO.P,U2,25,A0*%
%TO.N,/Eon.A0*%
X164661000Y-98772000D03*
%TO.P,U2,26,CE#*%
%TO.N,/Eon.CE*%
X164161000Y-98772000D03*
%TO.P,U2,27,VSS*%
%TO.N,/GND*%
X163661000Y-98772000D03*
%TO.P,U2,28,OE#*%
%TO.N,/Eon.OE*%
X163161000Y-98772000D03*
%TO.P,U2,29,DQ0*%
%TO.N,/Eon.DQ0*%
X162661000Y-98772000D03*
%TO.P,U2,30,DQ8*%
%TO.N,unconnected-(U2-Pad30)*%
X162161000Y-98772000D03*
%TO.P,U2,31,DQ1*%
%TO.N,/Eon.DQ1*%
X161661000Y-98772000D03*
%TO.P,U2,32,DQ9*%
%TO.N,unconnected-(U2-Pad32)*%
X161161000Y-98772000D03*
%TO.P,U2,33,DQ2*%
%TO.N,/Eon.DQ2*%
X160661000Y-98772000D03*
%TO.P,U2,34,DQ10*%
%TO.N,unconnected-(U2-Pad34)*%
X160161000Y-98772000D03*
%TO.P,U2,35,DQ3*%
%TO.N,/Eon.DQ3*%
X159661000Y-98772000D03*
%TO.P,U2,36,DQ11*%
%TO.N,unconnected-(U2-Pad36)*%
X159161000Y-98772000D03*
%TO.P,U2,37,VCC*%
%TO.N,/VCC*%
X158661000Y-98772000D03*
%TO.P,U2,38,DQ4*%
%TO.N,/Eon.DQ4*%
X158161000Y-98772000D03*
%TO.P,U2,39,DQ12*%
%TO.N,unconnected-(U2-Pad39)*%
X157661000Y-98772000D03*
%TO.P,U2,40,DQ5*%
%TO.N,/Eon.DQ5*%
X157161000Y-98772000D03*
%TO.P,U2,41,DQ13*%
%TO.N,unconnected-(U2-Pad41)*%
X156661000Y-98772000D03*
%TO.P,U2,42,DQ6*%
%TO.N,/Eon.DQ6*%
X156161000Y-98772000D03*
%TO.P,U2,43,DQ14*%
%TO.N,unconnected-(U2-Pad43)*%
X155661000Y-98772000D03*
%TO.P,U2,44,DQ7*%
%TO.N,/Eon.DQ7*%
X155161000Y-98772000D03*
%TO.P,U2,45,DQ15/A-1*%
%TO.N,/Eon.A-1*%
X154661000Y-98772000D03*
%TO.P,U2,46,VSS*%
%TO.N,/GND*%
X154161000Y-98772000D03*
%TO.P,U2,47,BYTE#*%
%TO.N,unconnected-(U2-Pad47)*%
X153661000Y-98772000D03*
%TO.P,U2,48,A16*%
%TO.N,/Eon.A16*%
X153161000Y-98772000D03*
%TD*%
D24*
%TO.P,J3,5*%
%TO.N,N/C*%
X153106000Y-71823000D03*
X150043835Y-71820600D03*
%TD*%
D25*
%TO.N,/USB.VCC*%
X162219900Y-75937900D03*
X148927300Y-75761300D03*
%TO.N,/USB.D-*%
X139444600Y-103485400D03*
X149520100Y-73494900D03*
%TO.N,/USB.D+*%
X151277100Y-73524600D03*
X141000000Y-105546000D03*
%TO.N,/GND*%
X162382600Y-124749800D03*
X161194900Y-96118700D03*
X154804300Y-96675200D03*
X143215000Y-87624500D03*
X141804500Y-76831700D03*
X153411100Y-73948500D03*
%TO.N,/PIC.RC0*%
X147080000Y-104770800D03*
X145745000Y-82225900D03*
%TO.N,/PIC.RC1*%
X138867000Y-100933200D03*
X138540200Y-81136200D03*
X141628000Y-75710900D03*
%TO.N,/PIC.RC2*%
X144819800Y-102175100D03*
%TO.N,/PIC.RB4*%
X145264700Y-98918000D03*
X145565400Y-89868400D03*
%TO.N,/PIC.RB6*%
X146394600Y-91090500D03*
X145412400Y-100046400D03*
%TO.N,/PIC.RC7*%
X149630200Y-98364900D03*
%TO.N,/PIC.RC6*%
X151119800Y-98773700D03*
%TO.N,/PIC.RC3*%
X149777800Y-97334000D03*
X148404600Y-82221200D03*
%TO.N,/PIC.RC4*%
X140160300Y-76743300D03*
X152528500Y-102839100D03*
X137386700Y-75590600D03*
%TO.N,/PIC.RC5*%
X148970100Y-104046300D03*
X145236500Y-79309000D03*
X135611300Y-75627300D03*
%TO.N,/PIC.CLKOUT*%
X148487900Y-96572700D03*
%TO.N,/VCC*%
X150660100Y-96165100D03*
X147097300Y-80826400D03*
X148171500Y-88331100D03*
X140657500Y-112419900D03*
X148333300Y-116858400D03*
X158800000Y-120900000D03*
%TO.N,/IRQ*%
X148133000Y-124752500D03*
X155300200Y-90951100D03*
%TO.N,/CLK*%
X147070600Y-75756300D03*
X141296700Y-122663100D03*
%TO.N,/Sys.CS1*%
X147924600Y-78993100D03*
X143266100Y-124748200D03*
%TO.N,/Sys.Reset*%
X147177900Y-79727800D03*
X145071000Y-124758800D03*
%TO.N,/Sys.CS2*%
X142259400Y-124521300D03*
X149610200Y-79537600D03*
%TO.N,/D0*%
X151057000Y-124740800D03*
X150524200Y-78989500D03*
%TO.N,/D1*%
X152889000Y-91480700D03*
X152620000Y-124716700D03*
X150542300Y-80060400D03*
%TO.N,/D2*%
X149043400Y-80552200D03*
X149130400Y-91767700D03*
%TO.N,/D3*%
X155602000Y-124754500D03*
X150812500Y-82016900D03*
X147469700Y-102226200D03*
%TO.N,/D4*%
X152347600Y-82054200D03*
X159152500Y-123328600D03*
X154867300Y-80159200D03*
%TO.N,/D5*%
X155689700Y-78984900D03*
X158600000Y-124733000D03*
%TO.N,/D6*%
X160115000Y-124761700D03*
X156310000Y-75656200D03*
X138754400Y-101933400D03*
%TO.N,/D7*%
X143215000Y-97304100D03*
X145565500Y-87395400D03*
X161630000Y-124061300D03*
%TO.N,/Cart.CS2*%
X156427000Y-92295200D03*
%TO.N,/Cart.Reset*%
X158991300Y-91488400D03*
%TO.N,/Cart.CS1*%
X159448000Y-92639600D03*
%TO.N,/XC.Vout*%
X141530000Y-108923800D03*
X138170400Y-87890800D03*
X154157700Y-75656000D03*
%TO.N,/Eon.A1*%
X164661000Y-111594600D03*
%TO.N,/Eon.A2*%
X163911100Y-115116100D03*
%TO.N,/Eon.A3*%
X163434900Y-116819600D03*
%TO.N,/Eon.A4*%
X163903000Y-122682300D03*
%TO.N,/Eon.A5*%
X161121900Y-116040600D03*
%TO.N,/Eon.A6*%
X161590000Y-121500000D03*
%TO.N,/Eon.A7*%
X162218100Y-114448600D03*
X143215000Y-91540600D03*
%TO.N,/Eon.A17*%
X160910101Y-120689899D03*
%TO.N,/Eon.A18*%
X161016700Y-112610700D03*
X143215000Y-90540400D03*
%TO.N,/Eon.WE*%
X158252857Y-120063555D03*
%TO.N,/Eon.A19*%
X156500000Y-121500000D03*
%TO.N,/Eon.A8*%
X153316600Y-120410900D03*
X144043000Y-86177000D03*
%TO.N,/Eon.A9*%
X155884000Y-115002200D03*
X149038800Y-85463400D03*
X151563700Y-89036600D03*
%TO.N,/Eon.A10*%
X155501800Y-116999800D03*
X144599100Y-84666500D03*
%TO.N,/Eon.A11*%
X138407900Y-84232000D03*
X155037500Y-119729800D03*
%TO.N,/Eon.A12*%
X154661000Y-114171400D03*
X149785000Y-83941300D03*
%TO.N,/Eon.A13*%
X144812900Y-83183600D03*
X153918000Y-113384900D03*
%TO.N,/Eon.A14*%
X152591500Y-119553100D03*
X143570500Y-82246000D03*
%TO.N,/Eon.DQ7*%
X155472700Y-97421200D03*
X158519700Y-78981000D03*
%TO.N,/Eon.DQ6*%
X156440500Y-96974400D03*
X158880300Y-79994200D03*
%TO.N,/Eon.DQ5*%
X160239000Y-79676900D03*
X158411700Y-100729700D03*
%TO.N,/Eon.DQ4*%
X159503600Y-81390300D03*
X158161000Y-97332000D03*
%TO.N,/Eon.DQ3*%
X161718500Y-78969100D03*
X159827100Y-100216100D03*
%TO.N,/Eon.DQ2*%
X165376500Y-79332000D03*
X161911000Y-100777200D03*
%TO.N,/Eon.DQ1*%
X160657000Y-97248500D03*
X161393400Y-84014200D03*
%TO.N,/Eon.DQ0*%
X162163100Y-81240800D03*
X163132800Y-96761600D03*
%TO.N,/Eon.OE*%
X163161000Y-100045500D03*
X165371300Y-81648000D03*
%TO.N,/Eon.CE*%
X161425700Y-83005000D03*
%TO.N,/Eon.A0*%
X165596400Y-82809300D03*
%TO.N,/Eon.A-1*%
X165975100Y-85471800D03*
%TO.N,/Eon.A16*%
X154676000Y-101122000D03*
%TO.N,/Eon.A15*%
X154422900Y-104692100D03*
X162137300Y-86937900D03*
%TO.N,/Eon.A20*%
X159241100Y-116493900D03*
X162109600Y-92089000D03*
%TD*%
D26*
%TO.N,/USB.VCC*%
X152781900Y-76548200D02*
X149714200Y-76548200D01*
X152811000Y-75379000D02*
X152811000Y-76519100D01*
X149714200Y-76548200D02*
X148927300Y-75761300D01*
X152811000Y-76519100D02*
X152781900Y-76548200D01*
%TO.N,/USB.D-*%
X152007100Y-74169800D02*
X152007100Y-73223700D01*
X143249800Y-104896000D02*
X142099200Y-104896000D01*
X152007100Y-73223700D02*
X151562100Y-72778700D01*
X151562100Y-72778700D02*
X150236300Y-72778700D01*
X151937000Y-74239900D02*
X152007100Y-74169800D01*
X142099200Y-104896000D02*
X140688600Y-103485400D01*
X151937000Y-75380000D02*
X151937000Y-74239900D01*
X140688600Y-103485400D02*
X139444600Y-103485400D01*
X150236300Y-72778700D02*
X149520100Y-73494900D01*
%TO.N,/USB.D+*%
X151277100Y-73524600D02*
X151277100Y-74029800D01*
X141000000Y-105546000D02*
X143249800Y-105546000D01*
X151277100Y-74029800D02*
X151067000Y-74239900D01*
X151067000Y-75380000D02*
X151067000Y-74239900D01*
%TO.N,/GND*%
X163137000Y-125044900D02*
X162677700Y-125044900D01*
X147599900Y-114293000D02*
X147602900Y-114290000D01*
X161020600Y-96293000D02*
X160261100Y-96293000D01*
X163929000Y-95842100D02*
X163661000Y-96110100D01*
X139876000Y-95114000D02*
X139876000Y-95839100D01*
X149112600Y-77045800D02*
X153008300Y-77045800D01*
X147464300Y-116195000D02*
X147464300Y-114293000D01*
X148190200Y-76123400D02*
X149112600Y-77045800D01*
X163857900Y-97062000D02*
X163661000Y-97258900D01*
X137691800Y-98023300D02*
X137691800Y-103726300D01*
X148190200Y-74862100D02*
X148190200Y-76123400D01*
X142845000Y-76831700D02*
X141804500Y-76831700D01*
X142845000Y-87624500D02*
X142845000Y-76831700D01*
X139477000Y-114484100D02*
X139477000Y-114946000D01*
X150233000Y-75375000D02*
X150233000Y-74234900D01*
X145116000Y-108273400D02*
X144851800Y-108537600D01*
X143249800Y-106196000D02*
X142099200Y-106196000D01*
X161277100Y-96036500D02*
X161194900Y-96118700D01*
X139876000Y-94389000D02*
X139876000Y-90593500D01*
X163137000Y-128995000D02*
X163137000Y-125044900D01*
X147464300Y-114293000D02*
X147599900Y-114293000D01*
X145116000Y-108273400D02*
X145116000Y-107910900D01*
X153008300Y-77045800D02*
X153411100Y-76643000D01*
X139635000Y-113201000D02*
X139635000Y-114326100D01*
X159536000Y-96293000D02*
X160261100Y-96293000D01*
X163857900Y-96307000D02*
X163857900Y-97062000D01*
X163587400Y-96036500D02*
X161277100Y-96036500D01*
X146976800Y-116682500D02*
X147464300Y-116195000D01*
X139876000Y-90593500D02*
X142845000Y-87624500D01*
X163661000Y-97258900D02*
X163661000Y-98772000D01*
X153411100Y-76643000D02*
X153411100Y-74860100D01*
X139048000Y-123782100D02*
X139919600Y-122910500D01*
X154161000Y-97318500D02*
X154804300Y-96675200D01*
X139876000Y-95114000D02*
X139876000Y-94389000D01*
X147770000Y-73037000D02*
X147770000Y-73469500D01*
X148328000Y-114290000D02*
X147602900Y-114290000D01*
X146489500Y-116682500D02*
X146740000Y-116682500D01*
X147770000Y-73469500D02*
X144407800Y-76831700D01*
X144851800Y-108537600D02*
X144851800Y-115044800D01*
X147770000Y-74862100D02*
X148190200Y-74862100D01*
X139919600Y-122910500D02*
X139919600Y-116388700D01*
X146740000Y-116682500D02*
X146740000Y-116933000D01*
X144400400Y-107195300D02*
X145116000Y-107910900D01*
X155194000Y-74860100D02*
X153411100Y-74860100D01*
X163661000Y-96110100D02*
X163587400Y-96036500D01*
X163661000Y-96110100D02*
X163857900Y-96307000D01*
X139635000Y-106998900D02*
X139635000Y-113201000D01*
X149805600Y-74234900D02*
X150233000Y-74234900D01*
X142845000Y-87624500D02*
X143215000Y-87624500D01*
X147770000Y-73469500D02*
X147770000Y-74862100D01*
X145116000Y-108636000D02*
X145116000Y-108273400D01*
X137691800Y-103726300D02*
X140299700Y-106334200D01*
X163929000Y-94392000D02*
X163929000Y-95842100D01*
X155194000Y-73035000D02*
X155194000Y-74860100D01*
X139477000Y-114946000D02*
X139477000Y-115946100D01*
X139048000Y-129001000D02*
X139048000Y-123782100D01*
X153411100Y-74860100D02*
X153411100Y-73948500D01*
X146740000Y-116682500D02*
X146976800Y-116682500D01*
X161194900Y-96118700D02*
X161020600Y-96293000D01*
X162677700Y-125044900D02*
X162382600Y-124749800D01*
X139919600Y-116388700D02*
X139477000Y-115946100D01*
X149178400Y-74862100D02*
X149805600Y-74234900D01*
X146738000Y-114293000D02*
X147464300Y-114293000D01*
X141961000Y-106334200D02*
X142099200Y-106196000D01*
X140299700Y-106334200D02*
X139635000Y-106998900D01*
X154161000Y-98772000D02*
X154161000Y-97318500D01*
X144851800Y-115044800D02*
X146489500Y-116682500D01*
X140299700Y-106334200D02*
X141961000Y-106334200D01*
X139635000Y-114326100D02*
X139477000Y-114484100D01*
X144400400Y-106196000D02*
X144400400Y-107195300D01*
X144407800Y-76831700D02*
X142845000Y-76831700D01*
X143249800Y-106196000D02*
X144400400Y-106196000D01*
X139876000Y-95839100D02*
X137691800Y-98023300D01*
X148190200Y-74862100D02*
X149178400Y-74862100D01*
%TO.N,/PIC.VUSB*%
X144400400Y-104246000D02*
X146425000Y-106270600D01*
X143249800Y-104246000D02*
X144400400Y-104246000D01*
X146425000Y-106270600D02*
X146425000Y-108635000D01*
%TO.N,/PIC.RC0*%
X145905200Y-103596000D02*
X143249800Y-103596000D01*
X147080000Y-104770800D02*
X145905200Y-103596000D01*
%TO.N,/PIC.RC1*%
X142099200Y-102946000D02*
X140086400Y-100933200D01*
X143249800Y-102946000D02*
X142099200Y-102946000D01*
X140086400Y-100933200D02*
X138867000Y-100933200D01*
%TO.N,/PIC.RC2*%
X144698900Y-102296000D02*
X144819800Y-102175100D01*
X143249800Y-102296000D02*
X144400400Y-102296000D01*
X144400400Y-102296000D02*
X144698900Y-102296000D01*
%TO.N,/PIC.RB4*%
X145218900Y-101311900D02*
X146185100Y-100345700D01*
X144435000Y-101311900D02*
X145218900Y-101311900D01*
X146185100Y-99709000D02*
X145394100Y-98918000D01*
X143249800Y-101646000D02*
X144100900Y-101646000D01*
X145394100Y-98918000D02*
X145264700Y-98918000D01*
X144100900Y-101646000D02*
X144435000Y-101311900D01*
X146185100Y-100345700D02*
X146185100Y-99709000D01*
%TO.N,/PIC.RB6*%
X143249800Y-100346000D02*
X144400400Y-100346000D01*
X144700000Y-100046400D02*
X145412400Y-100046400D01*
X144400400Y-100346000D02*
X144700000Y-100046400D01*
%TO.N,/PIC.RC7*%
X149363600Y-98631500D02*
X149630200Y-98364900D01*
X150514200Y-100996000D02*
X149363600Y-100996000D01*
X149363600Y-100996000D02*
X149363600Y-98631500D01*
%TO.N,/PIC.RC6*%
X151664800Y-99318700D02*
X151119800Y-98773700D01*
X151664800Y-101646000D02*
X151664800Y-99318700D01*
X150514200Y-101646000D02*
X151664800Y-101646000D01*
%TO.N,/PIC.RC3*%
X148892000Y-98041800D02*
X149599800Y-97334000D01*
X149363600Y-102296000D02*
X148892000Y-101824400D01*
X150514200Y-102296000D02*
X149363600Y-102296000D01*
X148892000Y-101824400D02*
X148892000Y-98041800D01*
X149599800Y-97334000D02*
X149777800Y-97334000D01*
%TO.N,/PIC.RC4*%
X150514200Y-102946000D02*
X152421600Y-102946000D01*
X152421600Y-102946000D02*
X152528500Y-102839100D01*
%TO.N,/PIC.RC5*%
X149363600Y-103596000D02*
X149363600Y-103652800D01*
X150514200Y-103596000D02*
X149363600Y-103596000D01*
X149363600Y-103652800D02*
X148970100Y-104046300D01*
%TO.N,/PIC.CLKOUT*%
X146027000Y-112640000D02*
X146027000Y-112965000D01*
X148194900Y-96865700D02*
X148487900Y-96572700D01*
X150514200Y-104896000D02*
X149363600Y-104896000D01*
X149363600Y-104896000D02*
X148794400Y-104896000D01*
X146012800Y-112979200D02*
X146012800Y-114875800D01*
X147228300Y-111438700D02*
X146027000Y-112640000D01*
X148794400Y-104896000D02*
X148194900Y-104296500D01*
X147228300Y-107031300D02*
X147228300Y-111438700D01*
X149363600Y-104896000D02*
X147228300Y-107031300D01*
X148194900Y-104296500D02*
X148194900Y-96865700D01*
X146027000Y-112965000D02*
X146012800Y-112979200D01*
X146012800Y-114875800D02*
X146739000Y-115602000D01*
%TO.N,/PIC.CLKIN*%
X150196000Y-110463000D02*
X150196000Y-111463100D01*
X151372200Y-112139300D02*
X151372200Y-113811800D01*
X149363600Y-108630500D02*
X150196000Y-109462900D01*
X150196000Y-109962900D02*
X150196000Y-109462900D01*
X149585000Y-115599000D02*
X148329000Y-115599000D01*
X150696000Y-111463100D02*
X151372200Y-112139300D01*
X151372200Y-113811800D02*
X149585000Y-115599000D01*
X150514200Y-105546000D02*
X149363600Y-105546000D01*
X150196000Y-111463100D02*
X150696000Y-111463100D01*
X149363600Y-105546000D02*
X149363600Y-108630500D01*
X150196000Y-109962900D02*
X150196000Y-110463000D01*
%TO.N,/VCC*%
X158661000Y-98772000D02*
X158661000Y-97857500D01*
X159160000Y-119946100D02*
X159163900Y-119946100D01*
X153450000Y-94394000D02*
X153450000Y-95728500D01*
X159163900Y-119946100D02*
X159661000Y-119449000D01*
X140708000Y-111014000D02*
X140708000Y-112139100D01*
X159160000Y-119946100D02*
X158661000Y-119447100D01*
X158182100Y-96294000D02*
X158100100Y-96294000D01*
X149560000Y-128705000D02*
X149560000Y-125004900D01*
X158661000Y-97857500D02*
X158902900Y-97615600D01*
X153013400Y-96165100D02*
X150660100Y-96165100D01*
X158800000Y-120900000D02*
X159160000Y-120540000D01*
X159661000Y-119449000D02*
X159661000Y-118472000D01*
X153450000Y-95844100D02*
X157052000Y-95844100D01*
X149560000Y-116858400D02*
X149560000Y-125004900D01*
X153450000Y-95728500D02*
X153450000Y-95844100D01*
X140657500Y-112419900D02*
X140657500Y-112189600D01*
X157052000Y-95844100D02*
X157501900Y-96294000D01*
X158902900Y-97615600D02*
X158902900Y-97014800D01*
X151842600Y-106373800D02*
X151842600Y-114575800D01*
X151664800Y-106196000D02*
X151842600Y-106373800D01*
X158100100Y-96294000D02*
X157501900Y-96294000D01*
X151842600Y-114575800D02*
X149560000Y-116858400D01*
X150514200Y-106196000D02*
X151664800Y-106196000D01*
X158661000Y-119447100D02*
X158661000Y-118472000D01*
X140657500Y-112189600D02*
X140708000Y-112139100D01*
X149560000Y-116858400D02*
X148333300Y-116858400D01*
X159160000Y-120540000D02*
X159160000Y-119946100D01*
X153450000Y-95728500D02*
X153013400Y-96165100D01*
X158902900Y-97014800D02*
X158182100Y-96294000D01*
X158227000Y-96294000D02*
X158100100Y-96294000D01*
%TO.N,/IRQ*%
X146741000Y-118242000D02*
X146741000Y-118967100D01*
X154958000Y-91293300D02*
X154958000Y-94389000D01*
X155300200Y-90951100D02*
X154958000Y-91293300D01*
X148133000Y-128362000D02*
X148133000Y-124752500D01*
X148133000Y-124752500D02*
X148133000Y-120359100D01*
X148133000Y-120359100D02*
X146741000Y-118967100D01*
%TO.N,/CLK*%
X156956300Y-79218300D02*
X155420300Y-77682300D01*
X156956300Y-87965600D02*
X156956300Y-79218300D01*
X140590000Y-128355000D02*
X140590000Y-123369800D01*
X161925600Y-92934900D02*
X156956300Y-87965600D01*
X155420300Y-77682300D02*
X148996600Y-77682300D01*
X162459000Y-92934900D02*
X161925600Y-92934900D01*
X148996600Y-77682300D02*
X147070600Y-75756300D01*
X140590000Y-123369800D02*
X141296700Y-122663100D01*
X162459000Y-94385000D02*
X162459000Y-92934900D01*
%TO.N,/Sys.CS1*%
X143547800Y-125029900D02*
X143266100Y-124748200D01*
X143564000Y-128355000D02*
X143564000Y-125029900D01*
X143564000Y-125029900D02*
X143547800Y-125029900D01*
%TO.N,/Sys.Reset*%
X145071000Y-128362000D02*
X145071000Y-124758800D01*
%TO.N,/Sys.CS2*%
X145620100Y-124023000D02*
X142757700Y-124023000D01*
X146634000Y-125036900D02*
X145620100Y-124023000D01*
X146634000Y-128362000D02*
X146634000Y-125036900D01*
X142757700Y-124023000D02*
X142259400Y-124521300D01*
%TO.N,/D0*%
X151057000Y-128370000D02*
X151057000Y-124740800D01*
X151941000Y-94388000D02*
X151941000Y-92937900D01*
X153647500Y-91768900D02*
X152478500Y-92937900D01*
X150524200Y-78989500D02*
X153647500Y-82112800D01*
X153647500Y-82112800D02*
X153647500Y-91768900D01*
X152478500Y-92937900D02*
X151941000Y-92937900D01*
%TO.N,/D1*%
X151898200Y-91480700D02*
X152889000Y-91480700D01*
X150438000Y-94391000D02*
X150438000Y-92940900D01*
X150438000Y-92940900D02*
X151898200Y-91480700D01*
X152620000Y-128370000D02*
X152620000Y-124716700D01*
%TO.N,/D2*%
X149309500Y-95840100D02*
X148966000Y-95840100D01*
X153279400Y-106840900D02*
X153279400Y-101758000D01*
X152597900Y-101076500D02*
X152597900Y-99128500D01*
X154127000Y-124325300D02*
X151843700Y-122042000D01*
X152427000Y-107693300D02*
X153279400Y-106840900D01*
X152427000Y-115980100D02*
X152427000Y-107693300D01*
X148966000Y-94390000D02*
X148966000Y-95840100D01*
X149130400Y-91767700D02*
X148966000Y-91932100D01*
X148966000Y-91932100D02*
X148966000Y-94390000D01*
X151843700Y-122042000D02*
X151843700Y-116563400D01*
X153279400Y-101758000D02*
X152597900Y-101076500D01*
X152597900Y-99128500D02*
X149309500Y-95840100D01*
X154127000Y-128362000D02*
X154127000Y-124325300D01*
X151843700Y-116563400D02*
X152427000Y-115980100D01*
%TO.N,/D3*%
X148387200Y-89777500D02*
X150812500Y-87352200D01*
X150812500Y-87352200D02*
X150812500Y-82016900D01*
X147457000Y-95842100D02*
X147457000Y-102213500D01*
X155602000Y-128362000D02*
X155602000Y-124754500D01*
X147457000Y-102213500D02*
X147469700Y-102226200D01*
X147457000Y-95117000D02*
X147457000Y-95842100D01*
X147457000Y-95117000D02*
X147457000Y-94392000D01*
X147457000Y-94392000D02*
X147457000Y-92941900D01*
X147457000Y-92941900D02*
X148387200Y-92011700D01*
X148387200Y-92011700D02*
X148387200Y-89777500D01*
%TO.N,/D4*%
X159152500Y-123328600D02*
X158809300Y-123328600D01*
X150526900Y-81257500D02*
X151550900Y-81257500D01*
X148900000Y-88628100D02*
X148900000Y-86582800D01*
X158809300Y-123328600D02*
X157101000Y-125036900D01*
X148304300Y-83480100D02*
X150526900Y-81257500D01*
X148900000Y-86582800D02*
X148304300Y-85987100D01*
X145912000Y-92944900D02*
X147505000Y-91351900D01*
X145912000Y-94395000D02*
X145912000Y-92944900D01*
X147505000Y-90023100D02*
X148900000Y-88628100D01*
X147505000Y-91351900D02*
X147505000Y-90023100D01*
X148304300Y-85987100D02*
X148304300Y-83480100D01*
X151550900Y-81257500D02*
X152347600Y-82054200D01*
X157101000Y-128362000D02*
X157101000Y-125036900D01*
%TO.N,/D5*%
X146740400Y-89719000D02*
X144439000Y-92020400D01*
X158600000Y-128354000D02*
X158600000Y-124733000D01*
X154915500Y-78210700D02*
X149911700Y-78210700D01*
X148310000Y-79812400D02*
X148310000Y-81290400D01*
X144439000Y-92020400D02*
X144439000Y-94390000D01*
X146740400Y-82860000D02*
X146740400Y-89719000D01*
X148310000Y-81290400D02*
X146740400Y-82860000D01*
X155689700Y-78984900D02*
X154915500Y-78210700D01*
X149911700Y-78210700D02*
X148310000Y-79812400D01*
%TO.N,/D6*%
X143940100Y-97604500D02*
X143940100Y-96847200D01*
X143515400Y-98029200D02*
X143940100Y-97604500D01*
X160115000Y-128362000D02*
X160115000Y-124761700D01*
X138754400Y-101933400D02*
X138141900Y-101320900D01*
X143940100Y-96847200D02*
X142937000Y-95844100D01*
X142937000Y-95119000D02*
X142937000Y-95844100D01*
X140745600Y-98029200D02*
X143515400Y-98029200D01*
X138141900Y-100632900D02*
X140745600Y-98029200D01*
X142937000Y-95119000D02*
X142937000Y-94394000D01*
X138141900Y-101320900D02*
X138141900Y-100632900D01*
%TO.N,/D7*%
X144275100Y-88685800D02*
X145565500Y-87395400D01*
X142845200Y-92935900D02*
X144275100Y-91506000D01*
X141390000Y-95836100D02*
X142858000Y-97304100D01*
X142858000Y-97304100D02*
X143215000Y-97304100D01*
X161630000Y-128362000D02*
X161630000Y-124061300D01*
X141390000Y-94386000D02*
X141390000Y-92935900D01*
X144275100Y-91506000D02*
X144275100Y-88685800D01*
X141390000Y-94386000D02*
X141390000Y-95836100D01*
X141390000Y-92935900D02*
X142845200Y-92935900D01*
%TO.N,/Cart.CS2*%
X156427000Y-92295200D02*
X156427000Y-94390000D01*
%TO.N,/Cart.Reset*%
X157938000Y-92541700D02*
X157938000Y-94390000D01*
X158991300Y-91488400D02*
X157938000Y-92541700D01*
%TO.N,/Cart.CS1*%
X159448000Y-94389000D02*
X159448000Y-92938900D01*
X159448000Y-92938900D02*
X159448000Y-92639600D01*
%TO.N,/XC.Vout*%
X141302000Y-114720100D02*
X141302000Y-114946000D01*
X141702000Y-109095800D02*
X141530000Y-108923800D01*
X141702000Y-113757500D02*
X141702000Y-114320100D01*
X141702000Y-114320100D02*
X141302000Y-114720100D01*
X141702000Y-113757500D02*
X141702000Y-113195000D01*
X141702000Y-113195000D02*
X141702000Y-109095800D01*
%TO.N,/Eon.A1*%
X164661000Y-118472000D02*
X164661000Y-111594600D01*
%TO.N,/Eon.A2*%
X164161000Y-115366000D02*
X163911100Y-115116100D01*
X164161000Y-118472000D02*
X164161000Y-115366000D01*
%TO.N,/Eon.A3*%
X163661000Y-118472000D02*
X163661000Y-117045700D01*
X163661000Y-117045700D02*
X163434900Y-116819600D01*
%TO.N,/Eon.A4*%
X163161000Y-118472000D02*
X163161000Y-119447100D01*
X162856800Y-119751300D02*
X162856800Y-121636100D01*
X162856800Y-121636100D02*
X163903000Y-122682300D01*
X163161000Y-119447100D02*
X162856800Y-119751300D01*
%TO.N,/Eon.A5*%
X162943200Y-114148200D02*
X162518500Y-113723500D01*
X162661000Y-115031200D02*
X162943200Y-114749000D01*
X162518500Y-113723500D02*
X161908800Y-113723500D01*
X161908800Y-113723500D02*
X161121900Y-114510400D01*
X162943200Y-114749000D02*
X162943200Y-114148200D01*
X161121900Y-114510400D02*
X161121900Y-116040600D01*
X162661000Y-118472000D02*
X162661000Y-115031200D01*
%TO.N,/Eon.A6*%
X162161000Y-120929000D02*
X162161000Y-118472000D01*
X161590000Y-121500000D02*
X162161000Y-120929000D01*
%TO.N,/Eon.A7*%
X161661000Y-116858700D02*
X161899800Y-116619900D01*
X161899800Y-114766900D02*
X162218100Y-114448600D01*
X161899800Y-116619900D02*
X161899800Y-114766900D01*
X161661000Y-118472000D02*
X161661000Y-116858700D01*
%TO.N,/Eon.A17*%
X160910101Y-120689899D02*
X161161000Y-120439000D01*
X161161000Y-120439000D02*
X161161000Y-118472000D01*
%TO.N,/Eon.A18*%
X160661000Y-116936800D02*
X160396800Y-116672600D01*
X160396800Y-113230600D02*
X161016700Y-112610700D01*
X160661000Y-118472000D02*
X160661000Y-116936800D01*
X160396800Y-116672600D02*
X160396800Y-113230600D01*
%TO.N,/Eon.WE*%
X158252857Y-120063555D02*
X158161000Y-119971698D01*
X158161000Y-119971698D02*
X158161000Y-118472000D01*
%TO.N,/Eon.A19*%
X157161000Y-120839000D02*
X157161000Y-118472000D01*
X156500000Y-121500000D02*
X157161000Y-120839000D01*
%TO.N,/Eon.A8*%
X153394100Y-120488400D02*
X153316600Y-120410900D01*
X155619700Y-120488400D02*
X153394100Y-120488400D01*
X156661000Y-119447100D02*
X155619700Y-120488400D01*
X156661000Y-118472000D02*
X156661000Y-119447100D01*
%TO.N,/Eon.A9*%
X156161000Y-117366100D02*
X156226900Y-117300200D01*
X156226900Y-117300200D02*
X156226900Y-115345100D01*
X156226900Y-115345100D02*
X155884000Y-115002200D01*
X156161000Y-118472000D02*
X156161000Y-117366100D01*
%TO.N,/Eon.A10*%
X155661000Y-118472000D02*
X155661000Y-117159000D01*
X155661000Y-117159000D02*
X155501800Y-116999800D01*
%TO.N,/Eon.A11*%
X155161000Y-119606300D02*
X155161000Y-118472000D01*
X155037500Y-119729800D02*
X155161000Y-119606300D01*
%TO.N,/Eon.A12*%
X154661000Y-114171400D02*
X154661000Y-118472000D01*
%TO.N,/Eon.A13*%
X154161000Y-114696800D02*
X154161000Y-118472000D01*
X153918000Y-113384900D02*
X153918000Y-114453800D01*
X153918000Y-114453800D02*
X154161000Y-114696800D01*
%TO.N,/Eon.A14*%
X153661000Y-119447100D02*
X152697500Y-119447100D01*
X153661000Y-118472000D02*
X153661000Y-119447100D01*
X152697500Y-119447100D02*
X152591500Y-119553100D01*
%TO.N,/Eon.DQ7*%
X155161000Y-98772000D02*
X155161000Y-97732900D01*
X155161000Y-97732900D02*
X155472700Y-97421200D01*
%TO.N,/Eon.DQ6*%
X156161000Y-97796900D02*
X156440500Y-97517400D01*
X156440500Y-97517400D02*
X156440500Y-96974400D01*
X156161000Y-98772000D02*
X156161000Y-97796900D01*
%TO.N,/Eon.DQ5*%
X157429100Y-99747100D02*
X158411700Y-100729700D01*
X157161000Y-98772000D02*
X157161000Y-99747100D01*
X157161000Y-99747100D02*
X157429100Y-99747100D01*
%TO.N,/Eon.DQ4*%
X158161000Y-98772000D02*
X158161000Y-97332000D01*
%TO.N,/Eon.DQ3*%
X159661000Y-100050000D02*
X159827100Y-100216100D01*
X159661000Y-98772000D02*
X159661000Y-100050000D01*
%TO.N,/Eon.DQ2*%
X160880900Y-99747100D02*
X161911000Y-100777200D01*
X160661000Y-99747100D02*
X160880900Y-99747100D01*
X160661000Y-98772000D02*
X160661000Y-99747100D01*
%TO.N,/Eon.DQ1*%
X161112600Y-97248500D02*
X161661000Y-97796900D01*
X160657000Y-97248500D02*
X161112600Y-97248500D01*
X161661000Y-98772000D02*
X161661000Y-97796900D01*
%TO.N,/Eon.DQ0*%
X162661000Y-98772000D02*
X162661000Y-97233400D01*
X162661000Y-97233400D02*
X163132800Y-96761600D01*
%TO.N,/Eon.OE*%
X163161000Y-98772000D02*
X163161000Y-100045500D01*
%TO.N,/Eon.CE*%
X164729300Y-97228600D02*
X164729300Y-86308600D01*
X164161000Y-97796900D02*
X164729300Y-97228600D01*
X164729300Y-86308600D02*
X161425700Y-83005000D01*
X164161000Y-98772000D02*
X164161000Y-97796900D01*
%TO.N,/Eon.A0*%
X164661000Y-98772000D02*
X165231100Y-98201900D01*
X165231100Y-98201900D02*
X165231100Y-83174600D01*
X165231100Y-83174600D02*
X165596400Y-82809300D01*
%TO.N,/Eon.A-1*%
X156416200Y-101502300D02*
X163293200Y-101502300D01*
X154661000Y-98772000D02*
X154661000Y-99747100D01*
X154661000Y-99747100D02*
X156416200Y-101502300D01*
X165681300Y-99114200D02*
X165681300Y-85765600D01*
X165681300Y-85765600D02*
X165975100Y-85471800D01*
X163293200Y-101502300D02*
X165681300Y-99114200D01*
%TO.N,/Eon.A16*%
X153161000Y-98772000D02*
X153161000Y-99747100D01*
X153161000Y-99747100D02*
X154535900Y-101122000D01*
X154535900Y-101122000D02*
X154676000Y-101122000D01*
%TO.N,/Eon.A15*%
X153161000Y-118472000D02*
X153161000Y-108471200D01*
X154422900Y-107209300D02*
X154422900Y-104692100D01*
X153161000Y-108471200D02*
X154422900Y-107209300D01*
%TO.N,/Eon.A20*%
X157661000Y-118472000D02*
X157661000Y-117496900D01*
X157661000Y-117496900D02*
X158238100Y-117496900D01*
X158238100Y-117496900D02*
X159241100Y-116493900D01*
%TD*%
M02*
