%TF.GenerationSoftware,KiCad,Pcbnew,(6.0.2)*%
%TF.CreationDate,2022-09-17T11:41:15-05:00*%
%TF.ProjectId,REF2160,52454632-3136-4302-9e6b-696361645f70,rev?*%
%TF.SameCoordinates,Original*%
%TF.FileFunction,Copper,L4,Bot*%
%TF.FilePolarity,Positive*%
%FSLAX46Y46*%
G04 Gerber Fmt 4.6, Leading zero omitted, Abs format (unit mm)*
G04 Created by KiCad (PCBNEW (6.0.2)) date 2022-09-17 11:41:15*
%MOMM*%
%LPD*%
G01*
G04 APERTURE LIST*
%TA.AperFunction,SMDPad,CuDef*%
%ADD10R,0.350000X2.000000*%
%TD*%
%TA.AperFunction,SMDPad,CuDef*%
%ADD11R,2.000000X0.350000*%
%TD*%
%TA.AperFunction,SMDPad,CuDef*%
%ADD12R,1.000000X4.000000*%
%TD*%
%TA.AperFunction,SMDPad,CuDef*%
%ADD13R,1.000000X3.500000*%
%TD*%
%TA.AperFunction,SMDPad,CuDef*%
%ADD14R,1.500000X0.800000*%
%TD*%
%TA.AperFunction,SMDPad,CuDef*%
%ADD15R,1.450000X1.150000*%
%TD*%
%TA.AperFunction,ComponentPad*%
%ADD16C,1.100000*%
%TD*%
%TA.AperFunction,SMDPad,CuDef*%
%ADD17R,0.550000X1.630000*%
%TD*%
%TA.AperFunction,SMDPad,CuDef*%
%ADD18R,2.000000X3.000000*%
%TD*%
%TA.AperFunction,SMDPad,CuDef*%
%ADD19R,0.800000X0.800000*%
%TD*%
%TA.AperFunction,ViaPad*%
%ADD20C,0.800000*%
%TD*%
%TA.AperFunction,Conductor*%
%ADD21C,0.250000*%
%TD*%
G04 APERTURE END LIST*
D10*
%TO.P,U5,1,I/O*%
%TO.N,/GND*%
X161629000Y-94392000D03*
%TO.P,U5,2,I/O*%
%TO.N,unconnected-(U5-Pad2)*%
X160954000Y-94392000D03*
%TO.P,U5,3,I/O*%
%TO.N,unconnected-(U5-Pad3)*%
X160276000Y-94392000D03*
%TO.P,U5,4,I/O*%
%TO.N,unconnected-(U5-Pad4)*%
X159643000Y-94392000D03*
%TO.P,U5,5,I/O*%
%TO.N,unconnected-(U5-Pad5)*%
X158968000Y-94392000D03*
%TO.P,U5,6,I/O*%
%TO.N,unconnected-(U5-Pad6)*%
X158373000Y-94392000D03*
%TO.P,U5,7,I/O*%
%TO.N,unconnected-(U5-Pad7)*%
X157697000Y-94393000D03*
%TO.P,U5,8,I/O*%
%TO.N,unconnected-(U5-Pad8)*%
X157020000Y-94393000D03*
%TO.P,U5,9,I/O*%
%TO.N,/GND*%
X156350000Y-94389000D03*
%TO.P,U5,10,I/O*%
%TO.N,/Cart.CS1*%
X155713000Y-94389000D03*
%TO.P,U5,11,I/O*%
%TO.N,/Cart.CS2*%
X155078000Y-94390000D03*
%TO.P,U5,12,I/O*%
%TO.N,/GND*%
X154444000Y-94388000D03*
%TO.P,U5,13,I/O*%
%TO.N,unconnected-(U5-Pad13)*%
X153768000Y-94388000D03*
%TO.P,U5,14,I/O*%
%TO.N,/XC.Vout*%
X153133000Y-94392000D03*
%TO.P,U5,15,I/O*%
%TO.N,/PIC.RC6*%
X152498000Y-94387000D03*
%TO.P,U5,16,I/O*%
%TO.N,/PIC.RC7*%
X151821000Y-94390000D03*
%TO.P,U5,17,I/O*%
%TO.N,/XC.Vout*%
X151191000Y-94390000D03*
%TO.P,U5,18,I/O*%
%TO.N,/VCC*%
X150555000Y-94389000D03*
%TO.P,U5,19,I/O*%
%TO.N,/PIC.RB6*%
X149881000Y-94390000D03*
%TO.P,U5,20,I/O*%
%TO.N,/PIC.RB4*%
X149243000Y-94390000D03*
%TO.P,U5,21,I/O*%
%TO.N,/PIC.RC2*%
X148571000Y-94390000D03*
%TO.P,U5,22,I/O*%
%TO.N,unconnected-(U5-Pad22)*%
X147936000Y-94391000D03*
%TO.P,U5,23,I/O*%
%TO.N,/PIC.CLKOUT*%
X147300000Y-94392000D03*
%TO.P,U5,24,I/O*%
%TO.N,/VCC*%
X146545000Y-94389000D03*
%TO.P,U5,25,I/O*%
%TO.N,/GND*%
X145912000Y-94389000D03*
%TO.P,U5,26,I/O*%
%TO.N,/Eon.A1*%
X145271000Y-94392000D03*
%TO.P,U5,27,I/O*%
%TO.N,/Eon.A2*%
X144640000Y-94392000D03*
%TO.P,U5,28,I/O*%
%TO.N,/Eon.A3*%
X143967000Y-94388000D03*
%TO.P,U5,29,I/O*%
%TO.N,/Eon.A4*%
X143332000Y-94391000D03*
%TO.P,U5,30,I/O*%
%TO.N,/Eon.A5*%
X142656000Y-94391000D03*
D11*
%TO.P,U5,31,I/O*%
%TO.N,/Eon.A6*%
X140591000Y-92049000D03*
%TO.P,U5,32,I/O*%
%TO.N,/Eon.A7*%
X140594000Y-91414000D03*
%TO.P,U5,33,I/O*%
%TO.N,/Eon.A17*%
X140593000Y-90739000D03*
%TO.P,U5,34,I/O*%
%TO.N,/Eon.A18*%
X140591000Y-90104000D03*
%TO.P,U5,35,I/O*%
%TO.N,/Eon.WE*%
X140593000Y-89430000D03*
%TO.P,U5,36,I/O*%
%TO.N,/Eon.A19*%
X140592000Y-88755000D03*
%TO.P,U5,37,I/O*%
%TO.N,/XC.Vout*%
X140592000Y-88124000D03*
%TO.P,U5,38,I/O*%
%TO.N,/GND*%
X140590000Y-87486000D03*
%TO.P,U5,39,I/O*%
%TO.N,/VCC*%
X140590000Y-86810000D03*
%TO.P,U5,40,I/O*%
%TO.N,/Eon.A8*%
X140592000Y-86177000D03*
%TO.P,U5,41,I/O*%
%TO.N,/Eon.A9*%
X140592000Y-85541000D03*
%TO.P,U5,42,I/O*%
%TO.N,/Eon.A10*%
X140590000Y-84867000D03*
%TO.P,U5,43,I/O*%
%TO.N,/Eon.A11*%
X140592000Y-84232000D03*
%TO.P,U5,44,I/O*%
%TO.N,/Eon.A12*%
X140592000Y-83557000D03*
%TO.P,U5,45,I/O*%
%TO.N,/Eon.A13*%
X140593000Y-82922000D03*
%TO.P,U5,46,I/O*%
%TO.N,/Eon.A14*%
X140593000Y-82246000D03*
%TO.P,U5,47,I/O*%
%TO.N,/PIC.RC0*%
X140592000Y-81610000D03*
%TO.P,U5,48,I/O*%
%TO.N,/PIC.RC1*%
X140590000Y-80934000D03*
%TO.P,U5,49,I/O*%
%TO.N,/PIC.RC3*%
X140593000Y-80301000D03*
%TO.P,U5,50,I/O*%
%TO.N,/VCC*%
X140594000Y-79625000D03*
D10*
%TO.P,U5,51,I/O*%
%TO.N,/GND*%
X142616000Y-77363000D03*
%TO.P,U5,52,I/O*%
%TO.N,/VCC*%
X143294000Y-77365000D03*
%TO.P,U5,53,I/O*%
%TO.N,unconnected-(U5-Pad53)*%
X143929000Y-77369000D03*
%TO.P,U5,54,I/O*%
%TO.N,/PIC.RC4*%
X144602000Y-77364000D03*
%TO.P,U5,55,I/O*%
%TO.N,/PIC.RC5*%
X145239000Y-77363000D03*
%TO.P,U5,56,I/O*%
%TO.N,/VCC*%
X145871000Y-77365000D03*
%TO.P,U5,57,I/O*%
%TO.N,unconnected-(U5-Pad57)*%
X146507000Y-77368000D03*
%TO.P,U5,58,I/O*%
%TO.N,unconnected-(U5-Pad58)*%
X147259000Y-77364000D03*
%TO.P,U5,59,I/O*%
%TO.N,/CLK*%
X147894000Y-77365000D03*
%TO.P,U5,60,I/O*%
%TO.N,/Sys.CS1*%
X148534000Y-77368000D03*
%TO.P,U5,61,I/O*%
%TO.N,/Sys.Reset*%
X149203000Y-77364000D03*
%TO.P,U5,62,I/O*%
%TO.N,/Sys.CS2*%
X149839000Y-77364000D03*
%TO.P,U5,63,I/O*%
%TO.N,/D0*%
X150517000Y-77364000D03*
%TO.P,U5,64,I/O*%
%TO.N,/D1*%
X151149000Y-77361000D03*
%TO.P,U5,65,I/O*%
%TO.N,/D2*%
X151785000Y-77366000D03*
%TO.P,U5,66,I/O*%
%TO.N,/VCC*%
X152461000Y-77363000D03*
%TO.P,U5,67,I/O*%
%TO.N,/GND*%
X153095000Y-77364000D03*
%TO.P,U5,68,I/O*%
%TO.N,/XC.Vout*%
X153730000Y-77366000D03*
%TO.P,U5,69,I/O*%
%TO.N,/D3*%
X154406000Y-77364000D03*
%TO.P,U5,70,I/O*%
%TO.N,/D4*%
X155036000Y-77365000D03*
%TO.P,U5,71,I/O*%
%TO.N,/D5*%
X155677000Y-77363000D03*
%TO.P,U5,72,I/O*%
%TO.N,/D6*%
X156310000Y-77363000D03*
%TO.P,U5,73,I/O*%
%TO.N,/D7*%
X156987000Y-77362000D03*
%TO.P,U5,74,I/O*%
%TO.N,/VCC*%
X157656000Y-77362000D03*
%TO.P,U5,75,I/O*%
%TO.N,/GND*%
X158331000Y-77363000D03*
%TO.P,U5,76,I/O*%
%TO.N,/Eon.DQ7*%
X158929000Y-77363000D03*
%TO.P,U5,77,I/O*%
%TO.N,/Eon.DQ6*%
X159602000Y-77366000D03*
%TO.P,U5,78,I/O*%
%TO.N,/Eon.DQ5*%
X160239000Y-77366000D03*
%TO.P,U5,79,I/O*%
%TO.N,/Eon.DQ4*%
X160912000Y-77361000D03*
%TO.P,U5,80,I/O*%
%TO.N,/Eon.DQ3*%
X161587000Y-77366000D03*
D11*
%TO.P,U5,81,I/O*%
%TO.N,/Eon.DQ2*%
X163770000Y-79669000D03*
%TO.P,U5,82,I/O*%
%TO.N,/Eon.DQ1*%
X163770000Y-80340000D03*
%TO.P,U5,83,I/O*%
%TO.N,/Eon.DQ0*%
X163769000Y-80974000D03*
%TO.P,U5,84,I/O*%
%TO.N,/Eon.OE*%
X163771000Y-81648000D03*
%TO.P,U5,85,I/O*%
%TO.N,/Eon.CE*%
X163770000Y-82288000D03*
%TO.P,U5,86,I/O*%
%TO.N,/Eon.A0*%
X163773000Y-82959000D03*
%TO.P,U5,87,I/O*%
%TO.N,/VCC*%
X163773000Y-83594000D03*
%TO.P,U5,88,I/O*%
%TO.N,/GND*%
X163770000Y-84270000D03*
%TO.P,U5,89,I/O*%
%TO.N,/XC.Vout*%
X163774000Y-84901000D03*
%TO.P,U5,90,I/O*%
%TO.N,/Eon.A-1*%
X163774000Y-85581000D03*
%TO.P,U5,91,I/O*%
%TO.N,/Eon.A16*%
X163770000Y-86217000D03*
%TO.P,U5,92,I/O*%
%TO.N,/Eon.A15*%
X163770000Y-86850000D03*
%TO.P,U5,93,I/O*%
%TO.N,unconnected-(U5-Pad93)*%
X163771000Y-87524000D03*
%TO.P,U5,94,I/O*%
%TO.N,/IRQ*%
X163771000Y-88160000D03*
%TO.P,U5,95,I/O*%
%TO.N,/Cart.Reset*%
X163769000Y-88795000D03*
%TO.P,U5,96,I/O*%
%TO.N,unconnected-(U5-Pad96)*%
X163771000Y-89468000D03*
%TO.P,U5,97,I/O*%
%TO.N,unconnected-(U5-Pad97)*%
X163770000Y-90140000D03*
%TO.P,U5,98,I/O*%
%TO.N,unconnected-(U5-Pad98)*%
X163774000Y-90778000D03*
%TO.P,U5,99,I/O*%
%TO.N,unconnected-(U5-Pad99)*%
X163770000Y-91453000D03*
%TO.P,U5,100,I/O*%
%TO.N,/Eon.A20*%
X163770000Y-92089000D03*
%TD*%
D12*
%TO.P,J2,1,Pin_1*%
%TO.N,/VCC*%
X145643000Y-73003000D03*
D13*
%TO.P,J2,2,Pin_2*%
%TO.N,/PIC.RC0*%
X143651000Y-73233000D03*
%TO.P,J2,3,Pin_3*%
%TO.N,/PIC.RC1*%
X141628000Y-73243000D03*
%TO.P,J2,4,Pin_4*%
%TO.N,/PIC.RC3*%
X139603000Y-73238000D03*
%TO.P,J2,5,Pin_5*%
%TO.N,/PIC.RC4*%
X137583000Y-73227000D03*
%TO.P,J2,6,Pin_6*%
%TO.N,/PIC.RC5*%
X135556000Y-73235000D03*
D12*
%TO.P,J2,7,Pin_7*%
%TO.N,/GND*%
X133574000Y-73001000D03*
%TD*%
D14*
%TO.P,U7,1,IN*%
%TO.N,/USB.VCC*%
X160711000Y-74900000D03*
%TO.P,U7,2,GND*%
%TO.N,/GND*%
X160712000Y-73866000D03*
%TO.P,U7,3,EN*%
%TO.N,/USB.VCC*%
X160711000Y-72834000D03*
%TO.P,U7,4,N/C*%
%TO.N,/Weird.Cap*%
X162895000Y-72836000D03*
%TO.P,U7,5,OUT*%
%TO.N,/TLV.Vout*%
X162894000Y-74899000D03*
%TD*%
D15*
%TO.P,L1,1*%
%TO.N,/VCC*%
X166190000Y-77361000D03*
%TO.P,L1,2*%
%TO.N,/TLV.Vout*%
X166189000Y-75575000D03*
%TD*%
D16*
%TO.P,J3,5*%
%TO.N,N/C*%
X153106000Y-71823000D03*
X150043835Y-71820600D03*
D17*
%TO.P,J3,4,Pin_4*%
%TO.N,/USB.VCC*%
X150201000Y-75389000D03*
%TO.P,J3,3,Pin_3*%
%TO.N,/USB.D-*%
X151075000Y-75390000D03*
%TO.P,J3,2,Pin_2*%
%TO.N,/USB.D+*%
X151945000Y-75390000D03*
%TO.P,J3,1,Pin_1*%
%TO.N,/GND*%
X152779000Y-75385000D03*
D18*
X155242000Y-73047000D03*
X147818000Y-73045000D03*
%TD*%
D19*
%TO.P,C6,1*%
%TO.N,/VCC*%
X137296000Y-83709000D03*
%TO.P,C6,2*%
%TO.N,/GND*%
X137297000Y-82400000D03*
%TD*%
%TO.P,C7,1*%
%TO.N,/USB.VCC*%
X158371500Y-74261500D03*
%TO.P,C7,2*%
%TO.N,/GND*%
X158372500Y-72952500D03*
%TD*%
%TO.P,C8,1*%
%TO.N,/GND*%
X166610000Y-73510000D03*
%TO.P,C8,2*%
%TO.N,/Weird.Cap*%
X165301000Y-73509000D03*
%TD*%
D20*
%TO.N,/USB.VCC*%
X162219900Y-75937900D03*
X148927300Y-75761300D03*
%TO.N,/USB.D-*%
X139444600Y-103485400D03*
X149520100Y-73494900D03*
%TO.N,/USB.D+*%
X151277100Y-73524600D03*
X141000000Y-105546000D03*
%TO.N,/GND*%
X162382600Y-124749800D03*
X161194900Y-96118700D03*
X154804300Y-96675200D03*
X143215000Y-87624500D03*
X141804500Y-76831700D03*
X153411100Y-73948500D03*
%TO.N,/PIC.RC0*%
X147080000Y-104770800D03*
X145745000Y-82225900D03*
%TO.N,/PIC.RC1*%
X138867000Y-100933200D03*
X138540200Y-81136200D03*
X141628000Y-75710900D03*
%TO.N,/PIC.RC2*%
X144819800Y-102175100D03*
%TO.N,/PIC.RB4*%
X145264700Y-98918000D03*
X145565400Y-89868400D03*
%TO.N,/PIC.RB6*%
X146394600Y-91090500D03*
X145412400Y-100046400D03*
%TO.N,/PIC.RC7*%
X149630200Y-98364900D03*
%TO.N,/PIC.RC6*%
X151119800Y-98773700D03*
%TO.N,/PIC.RC3*%
X149777800Y-97334000D03*
X148404600Y-82221200D03*
%TO.N,/PIC.RC4*%
X140160300Y-76743300D03*
X152528500Y-102839100D03*
X137386700Y-75590600D03*
%TO.N,/PIC.RC5*%
X148970100Y-104046300D03*
X145236500Y-79309000D03*
X135611300Y-75627300D03*
%TO.N,/PIC.CLKOUT*%
X148487900Y-96572700D03*
%TO.N,/VCC*%
X150660100Y-96165100D03*
X147097300Y-80826400D03*
X148171500Y-88331100D03*
X140657500Y-112419900D03*
X148333300Y-116858400D03*
X158800000Y-120900000D03*
%TO.N,/IRQ*%
X148133000Y-124752500D03*
X155300200Y-90951100D03*
%TO.N,/CLK*%
X147070600Y-75756300D03*
X141296700Y-122663100D03*
%TO.N,/Sys.CS1*%
X147924600Y-78993100D03*
X143266100Y-124748200D03*
%TO.N,/Sys.Reset*%
X147177900Y-79727800D03*
X145071000Y-124758800D03*
%TO.N,/Sys.CS2*%
X142259400Y-124521300D03*
X149610200Y-79537600D03*
%TO.N,/D0*%
X151057000Y-124740800D03*
X150524200Y-78989500D03*
%TO.N,/D1*%
X152889000Y-91480700D03*
X152620000Y-124716700D03*
X150542300Y-80060400D03*
%TO.N,/D2*%
X149043400Y-80552200D03*
X149130400Y-91767700D03*
%TO.N,/D3*%
X155602000Y-124754500D03*
X150812500Y-82016900D03*
X147469700Y-102226200D03*
%TO.N,/D4*%
X152347600Y-82054200D03*
X159152500Y-123328600D03*
X154867300Y-80159200D03*
%TO.N,/D5*%
X155689700Y-78984900D03*
X158600000Y-124733000D03*
%TO.N,/D6*%
X160115000Y-124761700D03*
X156310000Y-75656200D03*
X138754400Y-101933400D03*
%TO.N,/D7*%
X143215000Y-97304100D03*
X145565500Y-87395400D03*
X161630000Y-124061300D03*
%TO.N,/Cart.CS2*%
X156427000Y-92295200D03*
%TO.N,/Cart.Reset*%
X158991300Y-91488400D03*
%TO.N,/Cart.CS1*%
X159448000Y-92639600D03*
%TO.N,/XC.Vout*%
X141530000Y-108923800D03*
X138170400Y-87890800D03*
X154157700Y-75656000D03*
%TO.N,/Eon.A1*%
X164661000Y-111594600D03*
%TO.N,/Eon.A2*%
X163911100Y-115116100D03*
%TO.N,/Eon.A3*%
X163434900Y-116819600D03*
%TO.N,/Eon.A4*%
X163903000Y-122682300D03*
%TO.N,/Eon.A5*%
X161121900Y-116040600D03*
%TO.N,/Eon.A6*%
X161590000Y-121500000D03*
%TO.N,/Eon.A7*%
X162218100Y-114448600D03*
X143215000Y-91540600D03*
%TO.N,/Eon.A17*%
X160910101Y-120689899D03*
%TO.N,/Eon.A18*%
X161016700Y-112610700D03*
X143215000Y-90540400D03*
%TO.N,/Eon.WE*%
X158252857Y-120063555D03*
%TO.N,/Eon.A19*%
X156500000Y-121500000D03*
%TO.N,/Eon.A8*%
X153316600Y-120410900D03*
X144043000Y-86177000D03*
%TO.N,/Eon.A9*%
X155884000Y-115002200D03*
X149038800Y-85463400D03*
X151563700Y-89036600D03*
%TO.N,/Eon.A10*%
X155501800Y-116999800D03*
X144599100Y-84666500D03*
%TO.N,/Eon.A11*%
X138407900Y-84232000D03*
X155037500Y-119729800D03*
%TO.N,/Eon.A12*%
X154661000Y-114171400D03*
X149785000Y-83941300D03*
%TO.N,/Eon.A13*%
X144812900Y-83183600D03*
X153918000Y-113384900D03*
%TO.N,/Eon.A14*%
X152591500Y-119553100D03*
X143570500Y-82246000D03*
%TO.N,/Eon.DQ7*%
X155472700Y-97421200D03*
X158519700Y-78981000D03*
%TO.N,/Eon.DQ6*%
X156440500Y-96974400D03*
X158880300Y-79994200D03*
%TO.N,/Eon.DQ5*%
X160239000Y-79676900D03*
X158411700Y-100729700D03*
%TO.N,/Eon.DQ4*%
X159503600Y-81390300D03*
X158161000Y-97332000D03*
%TO.N,/Eon.DQ3*%
X161718500Y-78969100D03*
X159827100Y-100216100D03*
%TO.N,/Eon.DQ2*%
X165376500Y-79332000D03*
X161911000Y-100777200D03*
%TO.N,/Eon.DQ1*%
X160657000Y-97248500D03*
X161393400Y-84014200D03*
%TO.N,/Eon.DQ0*%
X162163100Y-81240800D03*
X163132800Y-96761600D03*
%TO.N,/Eon.OE*%
X163161000Y-100045500D03*
X165371300Y-81648000D03*
%TO.N,/Eon.CE*%
X161425700Y-83005000D03*
%TO.N,/Eon.A0*%
X165596400Y-82809300D03*
%TO.N,/Eon.A-1*%
X165975100Y-85471800D03*
%TO.N,/Eon.A16*%
X154676000Y-101122000D03*
%TO.N,/Eon.A15*%
X154422900Y-104692100D03*
X162137300Y-86937900D03*
%TO.N,/Eon.A20*%
X159241100Y-116493900D03*
X162109600Y-92089000D03*
%TD*%
D21*
%TO.N,/USB.VCC*%
X159635900Y-74900000D02*
X159635900Y-74800800D01*
X159096600Y-74261500D02*
X159635900Y-73722200D01*
X159635900Y-73722200D02*
X159635900Y-72834000D01*
X150055000Y-75377200D02*
X149311400Y-75377200D01*
X159635900Y-74800800D02*
X159096600Y-74261500D01*
X160286500Y-74900000D02*
X160626300Y-74900000D01*
X149311400Y-75377200D02*
X148927300Y-75761300D01*
X161664200Y-75937900D02*
X162219900Y-75937900D01*
X160286500Y-74900000D02*
X159635900Y-74900000D01*
X160626300Y-74900000D02*
X161664200Y-75937900D01*
X160711000Y-74900000D02*
X160626300Y-74900000D01*
X158371500Y-74261500D02*
X159096600Y-74261500D01*
X160711000Y-72834000D02*
X159635900Y-72834000D01*
%TO.N,/USB.D-*%
X150929000Y-74238100D02*
X150185800Y-73494900D01*
X150929000Y-75378200D02*
X150929000Y-74238100D01*
X150185800Y-73494900D02*
X149520100Y-73494900D01*
%TO.N,/USB.D+*%
X151799000Y-75378200D02*
X151799000Y-74046500D01*
X151799000Y-74046500D02*
X151277100Y-73524600D01*
%TO.N,/GND*%
X167240200Y-82827600D02*
X167240200Y-74790600D01*
X161635100Y-72108800D02*
X161787100Y-72260800D01*
X154444000Y-95713100D02*
X154463600Y-95732700D01*
X154463600Y-95732700D02*
X154463600Y-96675200D01*
X154444000Y-94388000D02*
X154444000Y-95713100D01*
X133574000Y-75326100D02*
X133574000Y-77951900D01*
X157636200Y-72952500D02*
X157636200Y-74803900D01*
X165095100Y-84270000D02*
X165797800Y-84270000D01*
X152633000Y-72748200D02*
X152633000Y-73948500D01*
X166458600Y-73661400D02*
X166610000Y-73510000D01*
X148876800Y-71208100D02*
X147672000Y-71208100D01*
X136570800Y-84806900D02*
X139249900Y-87486000D01*
X142084700Y-76831700D02*
X141804500Y-76831700D01*
X166458600Y-74009000D02*
X166458600Y-73661400D01*
X156350000Y-95406000D02*
X156350000Y-95411200D01*
X155096000Y-72748200D02*
X152633000Y-72748200D01*
X157636200Y-72952500D02*
X158010000Y-72952500D01*
X156350000Y-95411200D02*
X156350000Y-95714100D01*
X156331400Y-95732700D02*
X156350000Y-95714100D01*
X160712000Y-73866000D02*
X161787100Y-73866000D01*
X145912000Y-94389000D02*
X145912000Y-95714100D01*
X137297000Y-82400000D02*
X136570800Y-83126200D01*
X156350000Y-94389000D02*
X156350000Y-95406000D01*
X152633000Y-73948500D02*
X153411100Y-73948500D01*
X137297000Y-82400000D02*
X137297000Y-81674900D01*
X158853700Y-72108800D02*
X161635100Y-72108800D01*
X163770000Y-84270000D02*
X165095100Y-84270000D01*
X166233400Y-74234200D02*
X164434800Y-74234200D01*
X151630900Y-99507900D02*
X149705800Y-99507900D01*
X155096000Y-73035200D02*
X155096000Y-72891700D01*
X157575400Y-72891700D02*
X157636200Y-72952500D01*
X149574600Y-72748200D02*
X148997100Y-72170700D01*
X165797800Y-84270000D02*
X167240200Y-82827600D01*
X140590000Y-87486000D02*
X143076500Y-87486000D01*
X133574000Y-73001000D02*
X133574000Y-75326100D01*
X158331000Y-75498700D02*
X158331000Y-77363000D01*
X164434800Y-74234200D02*
X164066600Y-73866000D01*
X153095000Y-75835200D02*
X153095000Y-77364000D01*
X152633000Y-73948500D02*
X152633000Y-75373200D01*
X147672000Y-73033200D02*
X147672000Y-71208100D01*
X139249900Y-87486000D02*
X140590000Y-87486000D01*
X148997100Y-72170700D02*
X148997100Y-71328400D01*
X136570800Y-83126200D02*
X136570800Y-84806900D01*
X161787100Y-72260800D02*
X161787100Y-73866000D01*
X152633000Y-75373200D02*
X153095000Y-75835200D01*
X157636200Y-74803900D02*
X158331000Y-75498700D01*
X155096000Y-72891700D02*
X157575400Y-72891700D01*
X164066600Y-73866000D02*
X161787100Y-73866000D01*
X161559900Y-95786200D02*
X161629000Y-95717100D01*
X143076500Y-87486000D02*
X143215000Y-87624500D01*
X161194900Y-95786200D02*
X161559900Y-95786200D01*
X161629000Y-94392000D02*
X161629000Y-95717100D01*
X156725000Y-95786200D02*
X161194900Y-95786200D01*
X152633000Y-72748200D02*
X149574600Y-72748200D01*
X148997100Y-71328400D02*
X148876800Y-71208100D01*
X158372500Y-72952500D02*
X158010000Y-72952500D01*
X154463600Y-95732700D02*
X156331400Y-95732700D01*
X158010000Y-72952500D02*
X158853700Y-72108800D01*
X133574000Y-77951900D02*
X137297000Y-81674900D01*
X166458600Y-74009000D02*
X166233400Y-74234200D01*
X167240200Y-74790600D02*
X166458600Y-74009000D01*
X161194900Y-95786200D02*
X161194900Y-96118700D01*
X142616000Y-77363000D02*
X142084700Y-76831700D01*
X156350000Y-95411200D02*
X156725000Y-95786200D01*
X154463600Y-96675200D02*
X154804300Y-96675200D01*
X149705800Y-99507900D02*
X145912000Y-95714100D01*
X155096000Y-72891700D02*
X155096000Y-72748200D01*
X154463600Y-96675200D02*
X151630900Y-99507900D01*
%TO.N,/PIC.RC0*%
X143651000Y-73233000D02*
X143651000Y-72469700D01*
X143651000Y-72469700D02*
X142344100Y-71162800D01*
X138946900Y-81861300D02*
X139198200Y-81610000D01*
X139198200Y-81610000D02*
X140592000Y-81610000D01*
X138408200Y-80242800D02*
X137815100Y-80835900D01*
X142344100Y-71162800D02*
X138941000Y-71162800D01*
X145039900Y-81520800D02*
X145745000Y-82225900D01*
X138941000Y-71162800D02*
X138408200Y-71695600D01*
X137815100Y-80835900D02*
X137815100Y-81436500D01*
X141917100Y-81610000D02*
X142006300Y-81520800D01*
X140592000Y-81610000D02*
X141917100Y-81610000D01*
X138408200Y-71695600D02*
X138408200Y-80242800D01*
X142006300Y-81520800D02*
X145039900Y-81520800D01*
X138239900Y-81861300D02*
X138946900Y-81861300D01*
X137815100Y-81436500D02*
X138239900Y-81861300D01*
%TO.N,/PIC.RC1*%
X140590000Y-80934000D02*
X139264900Y-80934000D01*
X141628000Y-73243000D02*
X141628000Y-75710900D01*
X139264900Y-80934000D02*
X138742400Y-80934000D01*
X138742400Y-80934000D02*
X138540200Y-81136200D01*
%TO.N,/PIC.RC2*%
X144819800Y-102175100D02*
X144819800Y-102090300D01*
X148571000Y-94390000D02*
X148571000Y-93064900D01*
X142128700Y-99399200D02*
X142128700Y-93213300D01*
X144819800Y-102090300D02*
X142128700Y-99399200D01*
X148564300Y-93058200D02*
X148571000Y-93064900D01*
X142283800Y-93058200D02*
X148564300Y-93058200D01*
X142128700Y-93213300D02*
X142283800Y-93058200D01*
%TO.N,/PIC.RB4*%
X145565400Y-91291800D02*
X145565400Y-89868400D01*
X146829600Y-92556000D02*
X145565400Y-91291800D01*
X148767500Y-92556000D02*
X146829600Y-92556000D01*
X149243000Y-94390000D02*
X149243000Y-93031500D01*
X149243000Y-93031500D02*
X148767500Y-92556000D01*
%TO.N,/PIC.RB6*%
X149881000Y-91492800D02*
X149403800Y-91015600D01*
X149881000Y-94390000D02*
X149881000Y-91492800D01*
X146469500Y-91015600D02*
X146394600Y-91090500D01*
X149403800Y-91015600D02*
X146469500Y-91015600D01*
%TO.N,/PIC.RC7*%
X151821000Y-94390000D02*
X151821000Y-96379700D01*
X149835800Y-98364900D02*
X149630200Y-98364900D01*
X151821000Y-96379700D02*
X149835800Y-98364900D01*
%TO.N,/PIC.RC6*%
X152498000Y-97395500D02*
X151119800Y-98773700D01*
X152498000Y-94387000D02*
X152498000Y-97395500D01*
%TO.N,/PIC.RC3*%
X139267900Y-75648200D02*
X139267900Y-80301000D01*
X140593000Y-80301000D02*
X139267900Y-80301000D01*
X145713800Y-80484200D02*
X147450800Y-82221200D01*
X144566500Y-80301000D02*
X144749700Y-80484200D01*
X144749700Y-80484200D02*
X145713800Y-80484200D01*
X147450800Y-82221200D02*
X148404600Y-82221200D01*
X140593000Y-80301000D02*
X144566500Y-80301000D01*
X139603000Y-75313100D02*
X139267900Y-75648200D01*
X139603000Y-73238000D02*
X139603000Y-75313100D01*
%TO.N,/PIC.RC4*%
X140160300Y-76743300D02*
X142139600Y-78722600D01*
X144568500Y-78722600D02*
X144602000Y-78689100D01*
X142139600Y-78722600D02*
X144568500Y-78722600D01*
X144602000Y-77364000D02*
X144602000Y-78689100D01*
X137583000Y-75394300D02*
X137583000Y-73227000D01*
X137386700Y-75590600D02*
X137583000Y-75394300D01*
%TO.N,/PIC.RC5*%
X145239000Y-77363000D02*
X145239000Y-78688100D01*
X135556000Y-73235000D02*
X135556000Y-75310100D01*
X145236500Y-78690600D02*
X145239000Y-78688100D01*
X135611300Y-75365400D02*
X135611300Y-75627300D01*
X145236500Y-79309000D02*
X145236500Y-78690600D01*
X135556000Y-75310100D02*
X135611300Y-75365400D01*
%TO.N,/PIC.CLKOUT*%
X148155600Y-96572700D02*
X148487900Y-96572700D01*
X147300000Y-94392000D02*
X147300000Y-95717100D01*
X147300000Y-95717100D02*
X148155600Y-96572700D01*
%TO.N,/VCC*%
X145643000Y-74165500D02*
X145643000Y-74404000D01*
X145871000Y-75556100D02*
X145643000Y-75328100D01*
X162118600Y-84336800D02*
X161666900Y-84788500D01*
X146545000Y-95655100D02*
X148193300Y-97303400D01*
X148193300Y-97303400D02*
X148783000Y-97303400D01*
X145536900Y-80034100D02*
X145921000Y-79650000D01*
X165837200Y-83594000D02*
X166321500Y-83109700D01*
X145921000Y-79650000D02*
X145961600Y-79609400D01*
X143294000Y-76702400D02*
X143294000Y-77365000D01*
X152461000Y-79820100D02*
X150989400Y-81291700D01*
X145961600Y-78780700D02*
X145871000Y-78690100D01*
X145643000Y-74404000D02*
X145643000Y-75328100D01*
X157656000Y-81317400D02*
X150642300Y-88331100D01*
X161666900Y-84788500D02*
X161127100Y-84788500D01*
X145643000Y-73003000D02*
X145643000Y-74165500D01*
X140594000Y-79625000D02*
X141919100Y-79625000D01*
X145961600Y-79609400D02*
X145961600Y-78780700D01*
X141919100Y-79625000D02*
X144527100Y-79625000D01*
X144527100Y-79625000D02*
X144936200Y-80034100D01*
X145871000Y-77365000D02*
X145871000Y-78690100D01*
X162447900Y-83594000D02*
X162118600Y-83923300D01*
X152461000Y-77363000D02*
X152461000Y-78688100D01*
X149921300Y-96165100D02*
X150555000Y-96165100D01*
X146545000Y-94389000D02*
X146545000Y-95655100D01*
X145871000Y-77365000D02*
X145871000Y-75556100D01*
X152461000Y-78688100D02*
X152461000Y-79820100D01*
X157656000Y-81317400D02*
X157656000Y-77362000D01*
X150555000Y-96165100D02*
X150555000Y-95714100D01*
X166321500Y-83109700D02*
X166321500Y-78392600D01*
X161127100Y-84788500D02*
X157656000Y-81317400D01*
X144988600Y-88331100D02*
X148171500Y-88331100D01*
X143467500Y-86810000D02*
X144988600Y-88331100D01*
X145643000Y-74404000D02*
X144007100Y-76039900D01*
X137296000Y-83709000D02*
X137296000Y-84434100D01*
X140590000Y-86810000D02*
X139264900Y-86810000D01*
X150555000Y-96165100D02*
X150660100Y-96165100D01*
X147562600Y-81291700D02*
X147097300Y-80826400D01*
X140590000Y-86810000D02*
X141915100Y-86810000D01*
X150989400Y-81291700D02*
X147562600Y-81291700D01*
X143294000Y-76702400D02*
X143294000Y-76039900D01*
X144936200Y-80034100D02*
X145536900Y-80034100D01*
X150642300Y-88331100D02*
X148171500Y-88331100D01*
X144007100Y-76039900D02*
X143294000Y-76039900D01*
X141915100Y-86810000D02*
X143467500Y-86810000D01*
X150555000Y-94389000D02*
X150555000Y-95714100D01*
X163773000Y-83594000D02*
X165098100Y-83594000D01*
X145921000Y-79650000D02*
X147097300Y-80826400D01*
X162118600Y-83923300D02*
X162118600Y-84336800D01*
X137296000Y-84434100D02*
X137296000Y-84841100D01*
X165098100Y-83594000D02*
X165837200Y-83594000D01*
X137296000Y-84841100D02*
X139264900Y-86810000D01*
X166321500Y-78392600D02*
X166190000Y-78261100D01*
X148783000Y-97303400D02*
X149921300Y-96165100D01*
X166190000Y-77361000D02*
X166190000Y-78261100D01*
X163773000Y-83594000D02*
X162447900Y-83594000D01*
%TO.N,/TLV.Vout*%
X164462900Y-74899000D02*
X162894000Y-74899000D01*
X166189000Y-75575000D02*
X165138900Y-75575000D01*
X165138900Y-75575000D02*
X164462900Y-74899000D01*
%TO.N,/Weird.Cap*%
X162895000Y-72836000D02*
X163970100Y-72836000D01*
X163970100Y-72903200D02*
X164575900Y-73509000D01*
X163970100Y-72836000D02*
X163970100Y-72903200D01*
X165301000Y-73509000D02*
X164575900Y-73509000D01*
%TO.N,/IRQ*%
X158091300Y-88160000D02*
X163771000Y-88160000D01*
X155300200Y-90951100D02*
X158091300Y-88160000D01*
%TO.N,/CLK*%
X147894000Y-77365000D02*
X147894000Y-76039900D01*
X147610400Y-75756300D02*
X147070600Y-75756300D01*
X147894000Y-76039900D02*
X147610400Y-75756300D01*
%TO.N,/Sys.CS1*%
X148534000Y-77368000D02*
X148534000Y-78693100D01*
X148534000Y-78693100D02*
X148224600Y-78693100D01*
X148224600Y-78693100D02*
X147924600Y-78993100D01*
%TO.N,/Sys.Reset*%
X148265500Y-79727800D02*
X147177900Y-79727800D01*
X149203000Y-77364000D02*
X149203000Y-78790300D01*
X149203000Y-78790300D02*
X148265500Y-79727800D01*
%TO.N,/Sys.CS2*%
X149703200Y-77499800D02*
X149703200Y-79444600D01*
X149703200Y-79444600D02*
X149610200Y-79537600D01*
X149839000Y-77364000D02*
X149703200Y-77499800D01*
%TO.N,/D0*%
X150517000Y-77364000D02*
X150517000Y-78689100D01*
X150517000Y-78689100D02*
X150517000Y-78982300D01*
X150517000Y-78982300D02*
X150524200Y-78989500D01*
%TO.N,/D1*%
X150542300Y-80060400D02*
X151284800Y-79317900D01*
X151284800Y-79317900D02*
X151284800Y-77496800D01*
X151284800Y-77496800D02*
X151149000Y-77361000D01*
%TO.N,/D2*%
X149332800Y-80841600D02*
X150802900Y-80841600D01*
X151785000Y-79859500D02*
X151785000Y-77366000D01*
X149043400Y-80552200D02*
X149332800Y-80841600D01*
X150802900Y-80841600D02*
X151785000Y-79859500D01*
%TO.N,/D3*%
X150812500Y-82016900D02*
X151078200Y-82016900D01*
X154406000Y-77364000D02*
X154406000Y-78689100D01*
X151078200Y-82016900D02*
X154406000Y-78689100D01*
%TO.N,/D4*%
X154867300Y-80159200D02*
X154867300Y-78756400D01*
X155036000Y-78587700D02*
X155036000Y-77365000D01*
X154867300Y-78756400D02*
X155036000Y-78587700D01*
%TO.N,/D5*%
X155677000Y-77363000D02*
X155677000Y-78972200D01*
X155677000Y-78972200D02*
X155689700Y-78984900D01*
%TO.N,/D6*%
X156310000Y-75656200D02*
X156310000Y-77363000D01*
%TO.N,/D7*%
X156987000Y-79125200D02*
X148716800Y-87395400D01*
X156987000Y-77362000D02*
X156987000Y-79125200D01*
X148716800Y-87395400D02*
X145565500Y-87395400D01*
%TO.N,/Cart.CS2*%
X155782900Y-92295200D02*
X156427000Y-92295200D01*
X155078000Y-93000100D02*
X155782900Y-92295200D01*
X155078000Y-94390000D02*
X155078000Y-93000100D01*
%TO.N,/Cart.Reset*%
X162443900Y-88795000D02*
X159750500Y-91488400D01*
X159750500Y-91488400D02*
X158991300Y-91488400D01*
X163769000Y-88795000D02*
X162443900Y-88795000D01*
%TO.N,/Cart.CS1*%
X155713000Y-94389000D02*
X155713000Y-93063900D01*
X155713000Y-93063900D02*
X159023700Y-93063900D01*
X159023700Y-93063900D02*
X159448000Y-92639600D01*
%TO.N,/XC.Vout*%
X153015300Y-93066900D02*
X153133000Y-93066900D01*
X143264800Y-89143300D02*
X142245500Y-88124000D01*
X151206300Y-93049600D02*
X152998000Y-93049600D01*
X151191000Y-93064900D02*
X151191000Y-92105300D01*
X152998000Y-93049600D02*
X153015300Y-93066900D01*
X161434800Y-85716800D02*
X162250600Y-84901000D01*
X138403600Y-88124000D02*
X138170400Y-87890800D01*
X151191000Y-92105300D02*
X148229000Y-89143300D01*
X153829800Y-92217800D02*
X153829800Y-91321500D01*
X148229000Y-89143300D02*
X143264800Y-89143300D01*
X153829800Y-91321500D02*
X159434500Y-85716800D01*
X153730000Y-76040900D02*
X153772800Y-76040900D01*
X153133000Y-94392000D02*
X153133000Y-93066900D01*
X159434500Y-85716800D02*
X161434800Y-85716800D01*
X152998000Y-93049600D02*
X153829800Y-92217800D01*
X142245500Y-88124000D02*
X140592000Y-88124000D01*
X151191000Y-93064900D02*
X151206300Y-93049600D01*
X151191000Y-94390000D02*
X151191000Y-93064900D01*
X162250600Y-84901000D02*
X163774000Y-84901000D01*
X140592000Y-88124000D02*
X138403600Y-88124000D01*
X153730000Y-77366000D02*
X153730000Y-76040900D01*
X153772800Y-76040900D02*
X154157700Y-75656000D01*
%TO.N,/Eon.A1*%
X149656900Y-100174000D02*
X152428500Y-100174000D01*
X152428500Y-100174000D02*
X163849100Y-111594600D01*
X145271000Y-95788100D02*
X149656900Y-100174000D01*
X145271000Y-94392000D02*
X145271000Y-95788100D01*
X163849100Y-111594600D02*
X164661000Y-111594600D01*
%TO.N,/Eon.A2*%
X147224500Y-98378300D02*
X144640000Y-95793800D01*
X163911100Y-115116100D02*
X162491800Y-113696800D01*
X144640000Y-94392000D02*
X144640000Y-95717100D01*
X144640000Y-95793800D02*
X144640000Y-95717100D01*
X162491800Y-113696800D02*
X161077200Y-113696800D01*
X147224500Y-99844100D02*
X147224500Y-98378300D01*
X161077200Y-113696800D02*
X147224500Y-99844100D01*
%TO.N,/Eon.A3*%
X143967000Y-94388000D02*
X143967000Y-95713100D01*
X163434900Y-116819600D02*
X163434900Y-116691200D01*
X143967000Y-95757400D02*
X143967000Y-95713100D01*
X146331200Y-98121600D02*
X143967000Y-95757400D01*
X163434900Y-116691200D02*
X146331200Y-99587500D01*
X146331200Y-99587500D02*
X146331200Y-98121600D01*
%TO.N,/Eon.A4*%
X146744600Y-102406800D02*
X146744600Y-102526500D01*
X146744600Y-102526500D02*
X148245000Y-104026900D01*
X143332000Y-95759100D02*
X144390200Y-96817300D01*
X151171700Y-105064500D02*
X162304500Y-116197300D01*
X148245000Y-104346600D02*
X148669800Y-104771400D01*
X143332000Y-94391000D02*
X143332000Y-95759100D01*
X149282600Y-105064500D02*
X151171700Y-105064500D01*
X148989500Y-104771400D02*
X149282600Y-105064500D01*
X148245000Y-104026900D02*
X148245000Y-104346600D01*
X162304500Y-121083800D02*
X163903000Y-122682300D01*
X162304500Y-116197300D02*
X162304500Y-121083800D01*
X148669800Y-104771400D02*
X148989500Y-104771400D01*
X144390200Y-96817300D02*
X144390200Y-100052400D01*
X144390200Y-100052400D02*
X146744600Y-102406800D01*
%TO.N,/Eon.A5*%
X146294500Y-102713000D02*
X147794900Y-104213400D01*
X156882600Y-113301100D02*
X158382400Y-113301100D01*
X143940100Y-100238900D02*
X146294500Y-102593300D01*
X147794900Y-104533100D02*
X148483300Y-105221500D01*
X148803000Y-105221500D02*
X156882600Y-113301100D01*
X142656000Y-95719700D02*
X143940100Y-97003800D01*
X142656000Y-95716100D02*
X142656000Y-95719700D01*
X146294500Y-102593300D02*
X146294500Y-102713000D01*
X148483300Y-105221500D02*
X148803000Y-105221500D01*
X147794900Y-104213400D02*
X147794900Y-104533100D01*
X143940100Y-97003800D02*
X143940100Y-100238900D01*
X158382400Y-113301100D02*
X161121900Y-116040600D01*
X142656000Y-94391000D02*
X142656000Y-95716100D01*
%TO.N,/Eon.A6*%
X141729600Y-92211100D02*
X141843000Y-92211100D01*
X141916100Y-102451900D02*
X141916100Y-99823200D01*
X155288800Y-115824600D02*
X141916100Y-102451900D01*
X161590000Y-121500000D02*
X161680000Y-121410000D01*
X141916100Y-92049000D02*
X140591000Y-92049000D01*
X141843000Y-92211100D02*
X141916100Y-92138000D01*
X141466000Y-92474700D02*
X141729600Y-92211100D01*
X161680000Y-120435200D02*
X157069400Y-115824600D01*
X157069400Y-115824600D02*
X155288800Y-115824600D01*
X141916100Y-99823200D02*
X141466000Y-99373100D01*
X161680000Y-121410000D02*
X161680000Y-120435200D01*
X141916100Y-92138000D02*
X141916100Y-92049000D01*
X141466000Y-99373100D02*
X141466000Y-92474700D01*
%TO.N,/Eon.A7*%
X141919100Y-91414000D02*
X143088400Y-91414000D01*
X140594000Y-91414000D02*
X141919100Y-91414000D01*
X143088400Y-91414000D02*
X143215000Y-91540600D01*
%TO.N,/Eon.A17*%
X141466000Y-102638400D02*
X141466000Y-100009700D01*
X139267900Y-90739000D02*
X140593000Y-90739000D01*
X139213400Y-90793500D02*
X139267900Y-90739000D01*
X139213400Y-97757100D02*
X139213400Y-90793500D01*
X160909199Y-120689899D02*
X156494000Y-116274700D01*
X156494000Y-116274700D02*
X155102300Y-116274700D01*
X155102300Y-116274700D02*
X141466000Y-102638400D01*
X160910101Y-120689899D02*
X160909199Y-120689899D01*
X141466000Y-100009700D02*
X139213400Y-97757100D01*
%TO.N,/Eon.A18*%
X142778600Y-90104000D02*
X143215000Y-90540400D01*
X140591000Y-90104000D02*
X142778600Y-90104000D01*
%TO.N,/Eon.WE*%
X141015900Y-100196300D02*
X138750100Y-97930500D01*
X141015900Y-103615900D02*
X141015900Y-100196300D01*
X139267900Y-89430000D02*
X140593000Y-89430000D01*
X157463555Y-120063555D02*
X141015900Y-103615900D01*
X138750100Y-89947800D02*
X139267900Y-89430000D01*
X138750100Y-97930500D02*
X138750100Y-89947800D01*
X158252857Y-120063555D02*
X157463555Y-120063555D01*
%TO.N,/Eon.A19*%
X139266900Y-88755000D02*
X140592000Y-88755000D01*
X140565800Y-104165800D02*
X140565800Y-100700900D01*
X156500000Y-121500000D02*
X156500000Y-119736396D01*
X142009299Y-105245695D02*
X141725000Y-105245695D01*
X141725000Y-105245695D02*
X141300305Y-104821000D01*
X156500000Y-119736396D02*
X142009299Y-105245695D01*
X138272200Y-98407300D02*
X138272200Y-89749700D01*
X140565800Y-100700900D02*
X138272200Y-98407300D01*
X138272200Y-89749700D02*
X139266900Y-88755000D01*
X141221000Y-104821000D02*
X140565800Y-104165800D01*
X141300305Y-104821000D02*
X141221000Y-104821000D01*
%TO.N,/Eon.A8*%
X140592000Y-86177000D02*
X144043000Y-86177000D01*
%TO.N,/Eon.A9*%
X148967000Y-85391600D02*
X149038800Y-85463400D01*
X142066500Y-85391600D02*
X148967000Y-85391600D01*
X141917100Y-85541000D02*
X142066500Y-85391600D01*
X140592000Y-85541000D02*
X141917100Y-85541000D01*
%TO.N,/Eon.A10*%
X140590000Y-84867000D02*
X144398600Y-84867000D01*
X144398600Y-84867000D02*
X144599100Y-84666500D01*
%TO.N,/Eon.A11*%
X140592000Y-84232000D02*
X138407900Y-84232000D01*
%TO.N,/Eon.A12*%
X142301400Y-83941300D02*
X149785000Y-83941300D01*
X140592000Y-83557000D02*
X141917100Y-83557000D01*
X141917100Y-83557000D02*
X142301400Y-83941300D01*
%TO.N,/Eon.A13*%
X140593000Y-82922000D02*
X141918100Y-82922000D01*
X141918100Y-82922000D02*
X142081800Y-83085700D01*
X142081800Y-83085700D02*
X144715000Y-83085700D01*
X144715000Y-83085700D02*
X144812900Y-83183600D01*
%TO.N,/Eon.A14*%
X143570500Y-82246000D02*
X140593000Y-82246000D01*
%TO.N,/Eon.DQ7*%
X158812600Y-78688100D02*
X158929000Y-78688100D01*
X158929000Y-77363000D02*
X158929000Y-78688100D01*
X158519700Y-78981000D02*
X158812600Y-78688100D01*
%TO.N,/Eon.DQ6*%
X159602000Y-79272500D02*
X158880300Y-79994200D01*
X159602000Y-77366000D02*
X159602000Y-79272500D01*
%TO.N,/Eon.DQ5*%
X160239000Y-79676900D02*
X160239000Y-77366000D01*
%TO.N,/Eon.DQ4*%
X160912000Y-77361000D02*
X160912000Y-78686100D01*
X160993300Y-78767400D02*
X160912000Y-78686100D01*
X159503600Y-81390300D02*
X159618100Y-81390300D01*
X160993300Y-80015100D02*
X160993300Y-78767400D01*
X159618100Y-81390300D02*
X160993300Y-80015100D01*
%TO.N,/Eon.DQ3*%
X161587000Y-77366000D02*
X161587000Y-78837600D01*
X161587000Y-78837600D02*
X161718500Y-78969100D01*
%TO.N,/Eon.DQ2*%
X165095100Y-79613400D02*
X165095100Y-79669000D01*
X165376500Y-79332000D02*
X165095100Y-79613400D01*
X163770000Y-79669000D02*
X165095100Y-79669000D01*
%TO.N,/Eon.DQ1*%
X162444900Y-80340000D02*
X162038500Y-80340000D01*
X160628400Y-83249200D02*
X161393400Y-84014200D01*
X162038500Y-80340000D02*
X160628400Y-81750100D01*
X160628400Y-81750100D02*
X160628400Y-83249200D01*
X163770000Y-80340000D02*
X162444900Y-80340000D01*
%TO.N,/Eon.DQ0*%
X162163100Y-81240800D02*
X162429900Y-80974000D01*
X162429900Y-80974000D02*
X163769000Y-80974000D01*
%TO.N,/Eon.OE*%
X163771000Y-81648000D02*
X165371300Y-81648000D01*
%TO.N,/Eon.CE*%
X163770000Y-82288000D02*
X162142700Y-82288000D01*
X162142700Y-82288000D02*
X161425700Y-83005000D01*
%TO.N,/Eon.A0*%
X165446700Y-82959000D02*
X165596400Y-82809300D01*
X163773000Y-82959000D02*
X165446700Y-82959000D01*
%TO.N,/Eon.A-1*%
X165975100Y-85471800D02*
X165865900Y-85581000D01*
X165865900Y-85581000D02*
X163774000Y-85581000D01*
%TO.N,/Eon.A16*%
X165095100Y-86217000D02*
X165159100Y-86281000D01*
X162407700Y-96567900D02*
X158971000Y-100004600D01*
X158971000Y-100004600D02*
X155793400Y-100004600D01*
X165159100Y-93709900D02*
X162407700Y-96461300D01*
X162407700Y-96461300D02*
X162407700Y-96567900D01*
X155793400Y-100004600D02*
X154676000Y-101122000D01*
X165159100Y-86281000D02*
X165159100Y-93709900D01*
X163770000Y-86217000D02*
X165095100Y-86217000D01*
%TO.N,/Eon.A15*%
X162225200Y-86850000D02*
X163770000Y-86850000D01*
X162137300Y-86937900D02*
X162225200Y-86850000D01*
%TO.N,/Eon.A20*%
X163770000Y-92089000D02*
X162109600Y-92089000D01*
%TD*%
M02*
