%TF.GenerationSoftware,KiCad,Pcbnew,(6.0.2)*%
%TF.CreationDate,2022-09-17T11:41:15-05:00*%
%TF.ProjectId,REF2160,52454632-3136-4302-9e6b-696361645f70,rev?*%
%TF.SameCoordinates,Original*%
%TF.FileFunction,Paste,Bot*%
%TF.FilePolarity,Positive*%
%FSLAX46Y46*%
G04 Gerber Fmt 4.6, Leading zero omitted, Abs format (unit mm)*
G04 Created by KiCad (PCBNEW (6.0.2)) date 2022-09-17 11:41:15*
%MOMM*%
%LPD*%
G01*
G04 APERTURE LIST*
%ADD10R,0.350000X2.000000*%
%ADD11R,2.000000X0.350000*%
%ADD12R,1.000000X4.000000*%
%ADD13R,1.000000X3.500000*%
%ADD14R,1.500000X0.800000*%
%ADD15R,1.450000X1.150000*%
%ADD16R,0.550000X1.630000*%
%ADD17R,2.000000X3.000000*%
%ADD18R,0.800000X0.800000*%
G04 APERTURE END LIST*
D10*
%TO.C,U5*%
X161629000Y-94392000D03*
X160954000Y-94392000D03*
X160276000Y-94392000D03*
X159643000Y-94392000D03*
X158968000Y-94392000D03*
X158373000Y-94392000D03*
X157697000Y-94393000D03*
X157020000Y-94393000D03*
X156350000Y-94389000D03*
X155713000Y-94389000D03*
X155078000Y-94390000D03*
X154444000Y-94388000D03*
X153768000Y-94388000D03*
X153133000Y-94392000D03*
X152498000Y-94387000D03*
X151821000Y-94390000D03*
X151191000Y-94390000D03*
X150555000Y-94389000D03*
X149881000Y-94390000D03*
X149243000Y-94390000D03*
X148571000Y-94390000D03*
X147936000Y-94391000D03*
X147300000Y-94392000D03*
X146545000Y-94389000D03*
X145912000Y-94389000D03*
X145271000Y-94392000D03*
X144640000Y-94392000D03*
X143967000Y-94388000D03*
X143332000Y-94391000D03*
X142656000Y-94391000D03*
D11*
X140591000Y-92049000D03*
X140594000Y-91414000D03*
X140593000Y-90739000D03*
X140591000Y-90104000D03*
X140593000Y-89430000D03*
X140592000Y-88755000D03*
X140592000Y-88124000D03*
X140590000Y-87486000D03*
X140590000Y-86810000D03*
X140592000Y-86177000D03*
X140592000Y-85541000D03*
X140590000Y-84867000D03*
X140592000Y-84232000D03*
X140592000Y-83557000D03*
X140593000Y-82922000D03*
X140593000Y-82246000D03*
X140592000Y-81610000D03*
X140590000Y-80934000D03*
X140593000Y-80301000D03*
X140594000Y-79625000D03*
D10*
X142616000Y-77363000D03*
X143294000Y-77365000D03*
X143929000Y-77369000D03*
X144602000Y-77364000D03*
X145239000Y-77363000D03*
X145871000Y-77365000D03*
X146507000Y-77368000D03*
X147259000Y-77364000D03*
X147894000Y-77365000D03*
X148534000Y-77368000D03*
X149203000Y-77364000D03*
X149839000Y-77364000D03*
X150517000Y-77364000D03*
X151149000Y-77361000D03*
X151785000Y-77366000D03*
X152461000Y-77363000D03*
X153095000Y-77364000D03*
X153730000Y-77366000D03*
X154406000Y-77364000D03*
X155036000Y-77365000D03*
X155677000Y-77363000D03*
X156310000Y-77363000D03*
X156987000Y-77362000D03*
X157656000Y-77362000D03*
X158331000Y-77363000D03*
X158929000Y-77363000D03*
X159602000Y-77366000D03*
X160239000Y-77366000D03*
X160912000Y-77361000D03*
X161587000Y-77366000D03*
D11*
X163770000Y-79669000D03*
X163770000Y-80340000D03*
X163769000Y-80974000D03*
X163771000Y-81648000D03*
X163770000Y-82288000D03*
X163773000Y-82959000D03*
X163773000Y-83594000D03*
X163770000Y-84270000D03*
X163774000Y-84901000D03*
X163774000Y-85581000D03*
X163770000Y-86217000D03*
X163770000Y-86850000D03*
X163771000Y-87524000D03*
X163771000Y-88160000D03*
X163769000Y-88795000D03*
X163771000Y-89468000D03*
X163770000Y-90140000D03*
X163774000Y-90778000D03*
X163770000Y-91453000D03*
X163770000Y-92089000D03*
%TD*%
D12*
%TO.C,J2*%
X145643000Y-73003000D03*
D13*
X143651000Y-73233000D03*
X141628000Y-73243000D03*
X139603000Y-73238000D03*
X137583000Y-73227000D03*
X135556000Y-73235000D03*
D12*
X133574000Y-73001000D03*
%TD*%
D14*
%TO.C,U7*%
X160711000Y-74900000D03*
X160712000Y-73866000D03*
X160711000Y-72834000D03*
X162895000Y-72836000D03*
X162894000Y-74899000D03*
%TD*%
D15*
%TO.C,L1*%
X166190000Y-77361000D03*
X166189000Y-75575000D03*
%TD*%
D16*
%TO.C,J3*%
X150201000Y-75389000D03*
X151075000Y-75390000D03*
X151945000Y-75390000D03*
X152779000Y-75385000D03*
D17*
X155242000Y-73047000D03*
X147818000Y-73045000D03*
%TD*%
D18*
%TO.C,C6*%
X137296000Y-83709000D03*
X137297000Y-82400000D03*
%TD*%
%TO.C,C7*%
X158371500Y-74261500D03*
X158372500Y-72952500D03*
%TD*%
%TO.C,C8*%
X166610000Y-73510000D03*
X165301000Y-73509000D03*
%TD*%
M02*
