%TF.GenerationSoftware,KiCad,Pcbnew,(6.0.2)*%
%TF.CreationDate,2022-09-17T11:41:15-05:00*%
%TF.ProjectId,REF2160,52454632-3136-4302-9e6b-696361645f70,rev?*%
%TF.SameCoordinates,Original*%
%TF.FileFunction,Legend,Bot*%
%TF.FilePolarity,Positive*%
%FSLAX46Y46*%
G04 Gerber Fmt 4.6, Leading zero omitted, Abs format (unit mm)*
G04 Created by KiCad (PCBNEW (6.0.2)) date 2022-09-17 11:41:15*
%MOMM*%
%LPD*%
G01*
G04 APERTURE LIST*
%ADD10C,0.150000*%
G04 APERTURE END LIST*
D10*
X161335285Y-91121380D02*
X161906714Y-91121380D01*
X161621000Y-91121380D02*
X161621000Y-90121380D01*
X161716238Y-90264238D01*
X161811476Y-90359476D01*
X161906714Y-90407095D01*
X161621000Y-93064714D02*
X161621000Y-91636142D01*
X160102476Y-84914666D02*
X159626285Y-84914666D01*
X160197714Y-85200380D02*
X159864380Y-84200380D01*
X159531047Y-85200380D01*
X158769142Y-85152761D02*
X158864380Y-85200380D01*
X159054857Y-85200380D01*
X159150095Y-85152761D01*
X159197714Y-85105142D01*
X159245333Y-85009904D01*
X159245333Y-84724190D01*
X159197714Y-84628952D01*
X159150095Y-84581333D01*
X159054857Y-84533714D01*
X158864380Y-84533714D01*
X158769142Y-84581333D01*
X158483428Y-84533714D02*
X158102476Y-84533714D01*
X158340571Y-84200380D02*
X158340571Y-85057523D01*
X158292952Y-85152761D01*
X158197714Y-85200380D01*
X158102476Y-85200380D01*
X157769142Y-85200380D02*
X157769142Y-84533714D01*
X157769142Y-84200380D02*
X157816761Y-84248000D01*
X157769142Y-84295619D01*
X157721523Y-84248000D01*
X157769142Y-84200380D01*
X157769142Y-84295619D01*
X157150095Y-85200380D02*
X157245333Y-85152761D01*
X157292952Y-85105142D01*
X157340571Y-85009904D01*
X157340571Y-84724190D01*
X157292952Y-84628952D01*
X157245333Y-84581333D01*
X157150095Y-84533714D01*
X157007238Y-84533714D01*
X156912000Y-84581333D01*
X156864380Y-84628952D01*
X156816761Y-84724190D01*
X156816761Y-85009904D01*
X156864380Y-85105142D01*
X156912000Y-85152761D01*
X157007238Y-85200380D01*
X157150095Y-85200380D01*
X156388190Y-84533714D02*
X156388190Y-85200380D01*
X156388190Y-84628952D02*
X156340571Y-84581333D01*
X156245333Y-84533714D01*
X156102476Y-84533714D01*
X156007238Y-84581333D01*
X155959619Y-84676571D01*
X155959619Y-85200380D01*
X154150095Y-85200380D02*
X154483428Y-84724190D01*
X154721523Y-85200380D02*
X154721523Y-84200380D01*
X154340571Y-84200380D01*
X154245333Y-84248000D01*
X154197714Y-84295619D01*
X154150095Y-84390857D01*
X154150095Y-84533714D01*
X154197714Y-84628952D01*
X154245333Y-84676571D01*
X154340571Y-84724190D01*
X154721523Y-84724190D01*
X153340571Y-85152761D02*
X153435809Y-85200380D01*
X153626285Y-85200380D01*
X153721523Y-85152761D01*
X153769142Y-85057523D01*
X153769142Y-84676571D01*
X153721523Y-84581333D01*
X153626285Y-84533714D01*
X153435809Y-84533714D01*
X153340571Y-84581333D01*
X153292952Y-84676571D01*
X153292952Y-84771809D01*
X153769142Y-84867047D01*
X152864380Y-84533714D02*
X152864380Y-85533714D01*
X152864380Y-84581333D02*
X152769142Y-84533714D01*
X152578666Y-84533714D01*
X152483428Y-84581333D01*
X152435809Y-84628952D01*
X152388190Y-84724190D01*
X152388190Y-85009904D01*
X152435809Y-85105142D01*
X152483428Y-85152761D01*
X152578666Y-85200380D01*
X152769142Y-85200380D01*
X152864380Y-85152761D01*
X151816761Y-85200380D02*
X151912000Y-85152761D01*
X151959619Y-85057523D01*
X151959619Y-84200380D01*
X151007238Y-85200380D02*
X151007238Y-84676571D01*
X151054857Y-84581333D01*
X151150095Y-84533714D01*
X151340571Y-84533714D01*
X151435809Y-84581333D01*
X151007238Y-85152761D02*
X151102476Y-85200380D01*
X151340571Y-85200380D01*
X151435809Y-85152761D01*
X151483428Y-85057523D01*
X151483428Y-84962285D01*
X151435809Y-84867047D01*
X151340571Y-84819428D01*
X151102476Y-84819428D01*
X151007238Y-84771809D01*
X150626285Y-84533714D02*
X150388190Y-85200380D01*
X150150095Y-84533714D02*
X150388190Y-85200380D01*
X150483428Y-85438476D01*
X150531047Y-85486095D01*
X150626285Y-85533714D01*
X148673904Y-84676571D02*
X149007238Y-84676571D01*
X149007238Y-85200380D02*
X149007238Y-84200380D01*
X148531047Y-84200380D01*
X148150095Y-85200380D02*
X148150095Y-84200380D01*
X147769142Y-84200380D01*
X147673904Y-84248000D01*
X147626285Y-84295619D01*
X147578666Y-84390857D01*
X147578666Y-84533714D01*
X147626285Y-84628952D01*
X147673904Y-84676571D01*
X147769142Y-84724190D01*
X148150095Y-84724190D01*
X146626285Y-84248000D02*
X146721523Y-84200380D01*
X146864380Y-84200380D01*
X147007238Y-84248000D01*
X147102476Y-84343238D01*
X147150095Y-84438476D01*
X147197714Y-84628952D01*
X147197714Y-84771809D01*
X147150095Y-84962285D01*
X147102476Y-85057523D01*
X147007238Y-85152761D01*
X146864380Y-85200380D01*
X146769142Y-85200380D01*
X146626285Y-85152761D01*
X146578666Y-85105142D01*
X146578666Y-84771809D01*
X146769142Y-84771809D01*
X146197714Y-84914666D02*
X145721523Y-84914666D01*
X146292952Y-85200380D02*
X145959619Y-84200380D01*
X145626285Y-85200380D01*
X159126285Y-86810380D02*
X159459619Y-86334190D01*
X159697714Y-86810380D02*
X159697714Y-85810380D01*
X159316761Y-85810380D01*
X159221523Y-85858000D01*
X159173904Y-85905619D01*
X159126285Y-86000857D01*
X159126285Y-86143714D01*
X159173904Y-86238952D01*
X159221523Y-86286571D01*
X159316761Y-86334190D01*
X159697714Y-86334190D01*
X158269142Y-86810380D02*
X158269142Y-86286571D01*
X158316761Y-86191333D01*
X158412000Y-86143714D01*
X158602476Y-86143714D01*
X158697714Y-86191333D01*
X158269142Y-86762761D02*
X158364380Y-86810380D01*
X158602476Y-86810380D01*
X158697714Y-86762761D01*
X158745333Y-86667523D01*
X158745333Y-86572285D01*
X158697714Y-86477047D01*
X158602476Y-86429428D01*
X158364380Y-86429428D01*
X158269142Y-86381809D01*
X157888190Y-86143714D02*
X157697714Y-86810380D01*
X157507238Y-86334190D01*
X157316761Y-86810380D01*
X157126285Y-86143714D01*
X156031047Y-86762761D02*
X155888190Y-86810380D01*
X155650095Y-86810380D01*
X155554857Y-86762761D01*
X155507238Y-86715142D01*
X155459619Y-86619904D01*
X155459619Y-86524666D01*
X155507238Y-86429428D01*
X155554857Y-86381809D01*
X155650095Y-86334190D01*
X155840571Y-86286571D01*
X155935809Y-86238952D01*
X155983428Y-86191333D01*
X156031047Y-86096095D01*
X156031047Y-86000857D01*
X155983428Y-85905619D01*
X155935809Y-85858000D01*
X155840571Y-85810380D01*
X155602476Y-85810380D01*
X155459619Y-85858000D01*
X154602476Y-86762761D02*
X154697714Y-86810380D01*
X154888190Y-86810380D01*
X154983428Y-86762761D01*
X155031047Y-86715142D01*
X155078666Y-86619904D01*
X155078666Y-86334190D01*
X155031047Y-86238952D01*
X154983428Y-86191333D01*
X154888190Y-86143714D01*
X154697714Y-86143714D01*
X154602476Y-86191333D01*
X154173904Y-86810380D02*
X154173904Y-86143714D01*
X154173904Y-85810380D02*
X154221523Y-85858000D01*
X154173904Y-85905619D01*
X154126285Y-85858000D01*
X154173904Y-85810380D01*
X154173904Y-85905619D01*
X153316761Y-86762761D02*
X153412000Y-86810380D01*
X153602476Y-86810380D01*
X153697714Y-86762761D01*
X153745333Y-86667523D01*
X153745333Y-86286571D01*
X153697714Y-86191333D01*
X153602476Y-86143714D01*
X153412000Y-86143714D01*
X153316761Y-86191333D01*
X153269142Y-86286571D01*
X153269142Y-86381809D01*
X153745333Y-86477047D01*
X152840571Y-86143714D02*
X152840571Y-86810380D01*
X152840571Y-86238952D02*
X152792952Y-86191333D01*
X152697714Y-86143714D01*
X152554857Y-86143714D01*
X152459619Y-86191333D01*
X152412000Y-86286571D01*
X152412000Y-86810380D01*
X151507238Y-86762761D02*
X151602476Y-86810380D01*
X151792952Y-86810380D01*
X151888190Y-86762761D01*
X151935809Y-86715142D01*
X151983428Y-86619904D01*
X151983428Y-86334190D01*
X151935809Y-86238952D01*
X151888190Y-86191333D01*
X151792952Y-86143714D01*
X151602476Y-86143714D01*
X151507238Y-86191333D01*
X150697714Y-86762761D02*
X150792952Y-86810380D01*
X150983428Y-86810380D01*
X151078666Y-86762761D01*
X151126285Y-86667523D01*
X151126285Y-86286571D01*
X151078666Y-86191333D01*
X150983428Y-86143714D01*
X150792952Y-86143714D01*
X150697714Y-86191333D01*
X150650095Y-86286571D01*
X150650095Y-86381809D01*
X151126285Y-86477047D01*
X149507238Y-85905619D02*
X149459619Y-85858000D01*
X149364380Y-85810380D01*
X149126285Y-85810380D01*
X149031047Y-85858000D01*
X148983428Y-85905619D01*
X148935809Y-86000857D01*
X148935809Y-86096095D01*
X148983428Y-86238952D01*
X149554857Y-86810380D01*
X148935809Y-86810380D01*
X148316761Y-85810380D02*
X148221523Y-85810380D01*
X148126285Y-85858000D01*
X148078666Y-85905619D01*
X148031047Y-86000857D01*
X147983428Y-86191333D01*
X147983428Y-86429428D01*
X148031047Y-86619904D01*
X148078666Y-86715142D01*
X148126285Y-86762761D01*
X148221523Y-86810380D01*
X148316761Y-86810380D01*
X148412000Y-86762761D01*
X148459619Y-86715142D01*
X148507238Y-86619904D01*
X148554857Y-86429428D01*
X148554857Y-86191333D01*
X148507238Y-86000857D01*
X148459619Y-85905619D01*
X148412000Y-85858000D01*
X148316761Y-85810380D01*
X147031047Y-86810380D02*
X147602476Y-86810380D01*
X147316761Y-86810380D02*
X147316761Y-85810380D01*
X147412000Y-85953238D01*
X147507238Y-86048476D01*
X147602476Y-86096095D01*
X146173904Y-86143714D02*
X146173904Y-86810380D01*
X146412000Y-85762761D02*
X146650095Y-86477047D01*
X146031047Y-86477047D01*
%TO.C,U7*%
X161912904Y-70917380D02*
X161912904Y-71726904D01*
X161865285Y-71822142D01*
X161817666Y-71869761D01*
X161722428Y-71917380D01*
X161531952Y-71917380D01*
X161436714Y-71869761D01*
X161389095Y-71822142D01*
X161341476Y-71726904D01*
X161341476Y-70917380D01*
X160960523Y-70917380D02*
X160293857Y-70917380D01*
X160722428Y-71917380D01*
%TO.C,L1*%
X167548619Y-76974666D02*
X167548619Y-77450857D01*
X168548619Y-77450857D01*
X167548619Y-76117523D02*
X167548619Y-76688952D01*
X167548619Y-76403238D02*
X168548619Y-76403238D01*
X168405761Y-76498476D01*
X168310523Y-76593714D01*
X168262904Y-76688952D01*
%TO.C,C6*%
X135437857Y-82913666D02*
X135390238Y-82961285D01*
X135342619Y-83104142D01*
X135342619Y-83199380D01*
X135390238Y-83342238D01*
X135485476Y-83437476D01*
X135580714Y-83485095D01*
X135771190Y-83532714D01*
X135914047Y-83532714D01*
X136104523Y-83485095D01*
X136199761Y-83437476D01*
X136295000Y-83342238D01*
X136342619Y-83199380D01*
X136342619Y-83104142D01*
X136295000Y-82961285D01*
X136247380Y-82913666D01*
X136342619Y-82056523D02*
X136342619Y-82247000D01*
X136295000Y-82342238D01*
X136247380Y-82389857D01*
X136104523Y-82485095D01*
X135914047Y-82532714D01*
X135533095Y-82532714D01*
X135437857Y-82485095D01*
X135390238Y-82437476D01*
X135342619Y-82342238D01*
X135342619Y-82151761D01*
X135390238Y-82056523D01*
X135437857Y-82008904D01*
X135533095Y-81961285D01*
X135771190Y-81961285D01*
X135866428Y-82008904D01*
X135914047Y-82056523D01*
X135961666Y-82151761D01*
X135961666Y-82342238D01*
X135914047Y-82437476D01*
X135866428Y-82485095D01*
X135771190Y-82532714D01*
%TO.C,C7*%
X156659857Y-73551666D02*
X156612238Y-73599285D01*
X156564619Y-73742142D01*
X156564619Y-73837380D01*
X156612238Y-73980238D01*
X156707476Y-74075476D01*
X156802714Y-74123095D01*
X156993190Y-74170714D01*
X157136047Y-74170714D01*
X157326523Y-74123095D01*
X157421761Y-74075476D01*
X157517000Y-73980238D01*
X157564619Y-73837380D01*
X157564619Y-73742142D01*
X157517000Y-73599285D01*
X157469380Y-73551666D01*
X157564619Y-73218333D02*
X157564619Y-72551666D01*
X156564619Y-72980238D01*
%TO.C,C8*%
X166258666Y-72332142D02*
X166306285Y-72379761D01*
X166449142Y-72427380D01*
X166544380Y-72427380D01*
X166687238Y-72379761D01*
X166782476Y-72284523D01*
X166830095Y-72189285D01*
X166877714Y-71998809D01*
X166877714Y-71855952D01*
X166830095Y-71665476D01*
X166782476Y-71570238D01*
X166687238Y-71475000D01*
X166544380Y-71427380D01*
X166449142Y-71427380D01*
X166306285Y-71475000D01*
X166258666Y-71522619D01*
X165687238Y-71855952D02*
X165782476Y-71808333D01*
X165830095Y-71760714D01*
X165877714Y-71665476D01*
X165877714Y-71617857D01*
X165830095Y-71522619D01*
X165782476Y-71475000D01*
X165687238Y-71427380D01*
X165496761Y-71427380D01*
X165401523Y-71475000D01*
X165353904Y-71522619D01*
X165306285Y-71617857D01*
X165306285Y-71665476D01*
X165353904Y-71760714D01*
X165401523Y-71808333D01*
X165496761Y-71855952D01*
X165687238Y-71855952D01*
X165782476Y-71903571D01*
X165830095Y-71951190D01*
X165877714Y-72046428D01*
X165877714Y-72236904D01*
X165830095Y-72332142D01*
X165782476Y-72379761D01*
X165687238Y-72427380D01*
X165496761Y-72427380D01*
X165401523Y-72379761D01*
X165353904Y-72332142D01*
X165306285Y-72236904D01*
X165306285Y-72046428D01*
X165353904Y-71951190D01*
X165401523Y-71903571D01*
X165496761Y-71855952D01*
%TD*%
M02*
