%TF.GenerationSoftware,KiCad,Pcbnew,(6.0.2)*%
%TF.CreationDate,2022-09-17T11:41:15-05:00*%
%TF.ProjectId,REF2160,52454632-3136-4302-9e6b-696361645f70,rev?*%
%TF.SameCoordinates,Original*%
%TF.FileFunction,Soldermask,Top*%
%TF.FilePolarity,Negative*%
%FSLAX46Y46*%
G04 Gerber Fmt 4.6, Leading zero omitted, Abs format (unit mm)*
G04 Created by KiCad (PCBNEW (6.0.2)) date 2022-09-17 11:41:15*
%MOMM*%
%LPD*%
G01*
G04 APERTURE LIST*
%ADD10R,0.800000X0.800000*%
%ADD11R,1.000000X1.350000*%
%ADD12R,0.750000X1.600000*%
%ADD13R,0.870000X1.600000*%
%ADD14R,0.800000X1.600000*%
%ADD15R,1.651000X0.431800*%
%ADD16C,1.750000*%
%ADD17R,2.000000X3.000000*%
%ADD18R,0.550000X1.630000*%
%ADD19R,0.950000X2.250000*%
%ADD20R,1.200000X7.250000*%
%ADD21R,1.200000X6.000000*%
%ADD22R,1.200000X6.750000*%
%ADD23R,1.700000X1.350000*%
%ADD24R,0.300000X1.300000*%
%ADD25C,1.100000*%
G04 APERTURE END LIST*
D10*
%TO.C,C4*%
X145116000Y-108636000D03*
X146425000Y-108635000D03*
%TD*%
%TO.C,C2*%
X146739000Y-115602000D03*
X146738000Y-114293000D03*
%TD*%
D11*
%TO.C,C1*%
X139477000Y-114946000D03*
X141302000Y-114946000D03*
%TD*%
D12*
%TO.C,U4*%
X139635000Y-113201000D03*
D13*
X141702000Y-113195000D03*
D14*
X140708000Y-111014000D03*
%TD*%
D15*
%TO.C,U3*%
X150514200Y-106196000D03*
X150514200Y-105545999D03*
X150514200Y-104896001D03*
X150514200Y-104245999D03*
X150514200Y-103596001D03*
X150514200Y-102946002D03*
X150514200Y-102296001D03*
X150514200Y-101646002D03*
X150514200Y-100996001D03*
X150514200Y-100346002D03*
X143249800Y-100346000D03*
X143249800Y-100995998D03*
X143249800Y-101645999D03*
X143249800Y-102295998D03*
X143249800Y-102945999D03*
X143249800Y-103595998D03*
X143249800Y-104245999D03*
X143249800Y-104895998D03*
X143249800Y-105545999D03*
X143249800Y-106195998D03*
%TD*%
D16*
%TO.C,H2*%
X166946000Y-88077000D03*
%TD*%
D17*
%TO.C,J1*%
X147770000Y-73037000D03*
X155194000Y-73035000D03*
D18*
X150233000Y-75375000D03*
X151067000Y-75380000D03*
X151937000Y-75380000D03*
X152811000Y-75379000D03*
%TD*%
D19*
%TO.C,U6*%
X163929000Y-94392000D03*
X162459000Y-94385000D03*
X160950000Y-94389000D03*
X159448000Y-94389000D03*
X157938000Y-94390000D03*
X156427000Y-94390000D03*
X154958000Y-94389000D03*
X153450000Y-94394000D03*
X151941000Y-94388000D03*
X150438000Y-94391000D03*
X148966000Y-94390000D03*
X147457000Y-94392000D03*
X145912000Y-94395000D03*
X144439000Y-94390000D03*
X142937000Y-94394000D03*
X141390000Y-94386000D03*
X139876000Y-94389000D03*
%TD*%
D10*
%TO.C,C3*%
X148329000Y-115599000D03*
X148328000Y-114290000D03*
%TD*%
D20*
%TO.C,U1*%
X139048000Y-129001000D03*
D21*
X140590000Y-128355000D03*
X142105000Y-128363000D03*
X143564000Y-128355000D03*
X145071000Y-128362000D03*
X146634000Y-128362000D03*
X148133000Y-128362000D03*
D22*
X149560000Y-128705000D03*
D21*
X151057000Y-128370000D03*
X152620000Y-128370000D03*
X154127000Y-128362000D03*
X155602000Y-128362000D03*
X157101000Y-128362000D03*
X158600000Y-128354000D03*
X160115000Y-128362000D03*
X161630000Y-128362000D03*
D20*
X163137000Y-128995000D03*
%TD*%
D23*
%TO.C,X1*%
X146027000Y-112965000D03*
X150197000Y-112965000D03*
X150196000Y-110463000D03*
X146029000Y-110463000D03*
%TD*%
D10*
%TO.C,C5*%
X158227000Y-96294000D03*
X159536000Y-96293000D03*
%TD*%
D16*
%TO.C,H1*%
X135862000Y-88035000D03*
%TD*%
D10*
%TO.C,R1*%
X146741000Y-118242000D03*
X146740000Y-116933000D03*
%TD*%
D24*
%TO.C,U2*%
X153161000Y-118472000D03*
X153661000Y-118472000D03*
X154161000Y-118472000D03*
X154661000Y-118472000D03*
X155161000Y-118472000D03*
X155661000Y-118472000D03*
X156161000Y-118472000D03*
X156661000Y-118472000D03*
X157161000Y-118472000D03*
X157661000Y-118472000D03*
X158161000Y-118472000D03*
X158661000Y-118472000D03*
X159161000Y-118472000D03*
X159661000Y-118472000D03*
X160161000Y-118472000D03*
X160661000Y-118472000D03*
X161161000Y-118472000D03*
X161661000Y-118472000D03*
X162161000Y-118472000D03*
X162661000Y-118472000D03*
X163161000Y-118472000D03*
X163661000Y-118472000D03*
X164161000Y-118472000D03*
X164661000Y-118472000D03*
X164661000Y-98772000D03*
X164161000Y-98772000D03*
X163661000Y-98772000D03*
X163161000Y-98772000D03*
X162661000Y-98772000D03*
X162161000Y-98772000D03*
X161661000Y-98772000D03*
X161161000Y-98772000D03*
X160661000Y-98772000D03*
X160161000Y-98772000D03*
X159661000Y-98772000D03*
X159161000Y-98772000D03*
X158661000Y-98772000D03*
X158161000Y-98772000D03*
X157661000Y-98772000D03*
X157161000Y-98772000D03*
X156661000Y-98772000D03*
X156161000Y-98772000D03*
X155661000Y-98772000D03*
X155161000Y-98772000D03*
X154661000Y-98772000D03*
X154161000Y-98772000D03*
X153661000Y-98772000D03*
X153161000Y-98772000D03*
%TD*%
D25*
%TO.C,J3*%
X153106000Y-71823000D03*
X150043835Y-71820600D03*
%TD*%
M02*
