%TF.GenerationSoftware,KiCad,Pcbnew,(6.0.2)*%
%TF.CreationDate,2022-09-17T11:41:15-05:00*%
%TF.ProjectId,REF2160,52454632-3136-4302-9e6b-696361645f70,rev?*%
%TF.SameCoordinates,Original*%
%TF.FileFunction,Copper,L2,Inr*%
%TF.FilePolarity,Positive*%
%FSLAX46Y46*%
G04 Gerber Fmt 4.6, Leading zero omitted, Abs format (unit mm)*
G04 Created by KiCad (PCBNEW (6.0.2)) date 2022-09-17 11:41:15*
%MOMM*%
%LPD*%
G01*
G04 APERTURE LIST*
%TA.AperFunction,ComponentPad*%
%ADD10C,1.100000*%
%TD*%
%TA.AperFunction,ViaPad*%
%ADD11C,0.800000*%
%TD*%
%TA.AperFunction,Conductor*%
%ADD12C,0.250000*%
%TD*%
G04 APERTURE END LIST*
D10*
%TO.N,N/C*%
%TO.C,J3*%
X153106000Y-71823000D03*
X150043835Y-71820600D03*
%TD*%
D11*
%TO.N,/USB.VCC*%
X162219900Y-75937900D03*
X148927300Y-75761300D03*
%TO.N,/USB.D-*%
X139444600Y-103485400D03*
X149520100Y-73494900D03*
%TO.N,/USB.D+*%
X151277100Y-73524600D03*
X141000000Y-105546000D03*
%TO.N,/GND*%
X162382600Y-124749800D03*
X161194900Y-96118700D03*
X154804300Y-96675200D03*
X143215000Y-87624500D03*
X141804500Y-76831700D03*
X153411100Y-73948500D03*
%TO.N,/PIC.RC0*%
X147080000Y-104770800D03*
X145745000Y-82225900D03*
%TO.N,/PIC.RC1*%
X138867000Y-100933200D03*
X138540200Y-81136200D03*
X141628000Y-75710900D03*
%TO.N,/PIC.RC2*%
X144819800Y-102175100D03*
%TO.N,/PIC.RB4*%
X145264700Y-98918000D03*
X145565400Y-89868400D03*
%TO.N,/PIC.RB6*%
X146394600Y-91090500D03*
X145412400Y-100046400D03*
%TO.N,/PIC.RC7*%
X149630200Y-98364900D03*
%TO.N,/PIC.RC6*%
X151119800Y-98773700D03*
%TO.N,/PIC.RC3*%
X149777800Y-97334000D03*
X148404600Y-82221200D03*
%TO.N,/PIC.RC4*%
X140160300Y-76743300D03*
X152528500Y-102839100D03*
X137386700Y-75590600D03*
%TO.N,/PIC.RC5*%
X148970100Y-104046300D03*
X145236500Y-79309000D03*
X135611300Y-75627300D03*
%TO.N,/PIC.CLKOUT*%
X148487900Y-96572700D03*
%TO.N,/VCC*%
X150660100Y-96165100D03*
X147097300Y-80826400D03*
X148171500Y-88331100D03*
X140657500Y-112419900D03*
X148333300Y-116858400D03*
X158800000Y-120900000D03*
%TO.N,/IRQ*%
X148133000Y-124752500D03*
X155300200Y-90951100D03*
%TO.N,/CLK*%
X147070600Y-75756300D03*
X141296700Y-122663100D03*
%TO.N,/Sys.CS1*%
X147924600Y-78993100D03*
X143266100Y-124748200D03*
%TO.N,/Sys.Reset*%
X147177900Y-79727800D03*
X145071000Y-124758800D03*
%TO.N,/Sys.CS2*%
X142259400Y-124521300D03*
X149610200Y-79537600D03*
%TO.N,/D0*%
X151057000Y-124740800D03*
X150524200Y-78989500D03*
%TO.N,/D1*%
X152889000Y-91480700D03*
X152620000Y-124716700D03*
X150542300Y-80060400D03*
%TO.N,/D2*%
X149043400Y-80552200D03*
X149130400Y-91767700D03*
%TO.N,/D3*%
X155602000Y-124754500D03*
X150812500Y-82016900D03*
X147469700Y-102226200D03*
%TO.N,/D4*%
X152347600Y-82054200D03*
X159152500Y-123328600D03*
X154867300Y-80159200D03*
%TO.N,/D5*%
X155689700Y-78984900D03*
X158600000Y-124733000D03*
%TO.N,/D6*%
X160115000Y-124761700D03*
X156310000Y-75656200D03*
X138754400Y-101933400D03*
%TO.N,/D7*%
X143215000Y-97304100D03*
X145565500Y-87395400D03*
X161630000Y-124061300D03*
%TO.N,/Cart.CS2*%
X156427000Y-92295200D03*
%TO.N,/Cart.Reset*%
X158991300Y-91488400D03*
%TO.N,/Cart.CS1*%
X159448000Y-92639600D03*
%TO.N,/XC.Vout*%
X141530000Y-108923800D03*
X138170400Y-87890800D03*
X154157700Y-75656000D03*
%TO.N,/Eon.A1*%
X164661000Y-111594600D03*
%TO.N,/Eon.A2*%
X163911100Y-115116100D03*
%TO.N,/Eon.A3*%
X163434900Y-116819600D03*
%TO.N,/Eon.A4*%
X163903000Y-122682300D03*
%TO.N,/Eon.A5*%
X161121900Y-116040600D03*
%TO.N,/Eon.A6*%
X161590000Y-121500000D03*
%TO.N,/Eon.A7*%
X162218100Y-114448600D03*
X143215000Y-91540600D03*
%TO.N,/Eon.A17*%
X160910101Y-120689899D03*
%TO.N,/Eon.A18*%
X161016700Y-112610700D03*
X143215000Y-90540400D03*
%TO.N,/Eon.WE*%
X158252857Y-120063555D03*
%TO.N,/Eon.A19*%
X156500000Y-121500000D03*
%TO.N,/Eon.A8*%
X153316600Y-120410900D03*
X144043000Y-86177000D03*
%TO.N,/Eon.A9*%
X155884000Y-115002200D03*
X149038800Y-85463400D03*
X151563700Y-89036600D03*
%TO.N,/Eon.A10*%
X155501800Y-116999800D03*
X144599100Y-84666500D03*
%TO.N,/Eon.A11*%
X138407900Y-84232000D03*
X155037500Y-119729800D03*
%TO.N,/Eon.A12*%
X154661000Y-114171400D03*
X149785000Y-83941300D03*
%TO.N,/Eon.A13*%
X144812900Y-83183600D03*
X153918000Y-113384900D03*
%TO.N,/Eon.A14*%
X152591500Y-119553100D03*
X143570500Y-82246000D03*
%TO.N,/Eon.DQ7*%
X155472700Y-97421200D03*
X158519700Y-78981000D03*
%TO.N,/Eon.DQ6*%
X156440500Y-96974400D03*
X158880300Y-79994200D03*
%TO.N,/Eon.DQ5*%
X160239000Y-79676900D03*
X158411700Y-100729700D03*
%TO.N,/Eon.DQ4*%
X159503600Y-81390300D03*
X158161000Y-97332000D03*
%TO.N,/Eon.DQ3*%
X161718500Y-78969100D03*
X159827100Y-100216100D03*
%TO.N,/Eon.DQ2*%
X165376500Y-79332000D03*
X161911000Y-100777200D03*
%TO.N,/Eon.DQ1*%
X160657000Y-97248500D03*
X161393400Y-84014200D03*
%TO.N,/Eon.DQ0*%
X162163100Y-81240800D03*
X163132800Y-96761600D03*
%TO.N,/Eon.OE*%
X163161000Y-100045500D03*
X165371300Y-81648000D03*
%TO.N,/Eon.CE*%
X161425700Y-83005000D03*
%TO.N,/Eon.A0*%
X165596400Y-82809300D03*
%TO.N,/Eon.A-1*%
X165975100Y-85471800D03*
%TO.N,/Eon.A16*%
X154676000Y-101122000D03*
%TO.N,/Eon.A15*%
X154422900Y-104692100D03*
X162137300Y-86937900D03*
%TO.N,/Eon.A20*%
X159241100Y-116493900D03*
X162109600Y-92089000D03*
%TD*%
D12*
%TO.N,/USB.VCC*%
X150552000Y-73204700D02*
X150552000Y-74136600D01*
X150552000Y-74136600D02*
X148927300Y-75761300D01*
X159057300Y-72775300D02*
X150981400Y-72775300D01*
X150981400Y-72775300D02*
X150552000Y-73204700D01*
X162219900Y-75937900D02*
X159057300Y-72775300D01*
%TO.N,/PIC.RC1*%
X140885400Y-76453500D02*
X140885400Y-78791000D01*
X140885400Y-78791000D02*
X138540200Y-81136200D01*
X141628000Y-75710900D02*
X140885400Y-76453500D01*
%TO.N,/PIC.RC3*%
X147442300Y-94390400D02*
X149777800Y-96725900D01*
X148404600Y-84097100D02*
X147442300Y-85059400D01*
X147442300Y-85059400D02*
X147442300Y-94390400D01*
X148404600Y-82221200D02*
X148404600Y-84097100D01*
X149777800Y-96725900D02*
X149777800Y-97334000D01*
%TO.N,/PIC.RC4*%
X156605300Y-74922000D02*
X157079600Y-75396300D01*
X153684400Y-82672900D02*
X153684400Y-91719200D01*
X141194200Y-74986400D02*
X142220200Y-74986400D01*
X140160300Y-76743300D02*
X140160300Y-76020300D01*
X152635400Y-92768200D02*
X152635400Y-102732300D01*
X142220200Y-74986400D02*
X143728200Y-76494400D01*
X150955900Y-74922000D02*
X156605300Y-74922000D01*
X152635300Y-102732300D02*
X152528500Y-102839100D01*
X140160300Y-76743300D02*
X138539400Y-76743300D01*
X140160300Y-76020300D02*
X141194200Y-74986400D01*
X157079600Y-79277700D02*
X153684400Y-82672900D01*
X152635400Y-102732300D02*
X152635300Y-102732300D01*
X138539400Y-76743300D02*
X137386700Y-75590600D01*
X153684400Y-91719200D02*
X152635400Y-92768200D01*
X143728200Y-76494400D02*
X149383500Y-76494400D01*
X149383500Y-76494400D02*
X150955900Y-74922000D01*
X157079600Y-75396300D02*
X157079600Y-79277700D01*
%TO.N,/PIC.RC5*%
X138820200Y-85725300D02*
X145236500Y-79309000D01*
X137400100Y-87145400D02*
X138820200Y-85725300D01*
X135611300Y-82516500D02*
X135611300Y-75627300D01*
X138435200Y-102709400D02*
X137400100Y-101674300D01*
X138820200Y-85725300D02*
X135611300Y-82516500D01*
X148970100Y-104046300D02*
X141230700Y-104046300D01*
X137400100Y-101674300D02*
X137400100Y-87145400D01*
X139893800Y-102709400D02*
X138435200Y-102709400D01*
X141230700Y-104046300D02*
X139893800Y-102709400D01*
%TO.N,/VCC*%
X148171500Y-93676500D02*
X150660100Y-96165100D01*
X158800000Y-120900000D02*
X158800000Y-122653000D01*
X148333300Y-118539400D02*
X148333300Y-116858400D01*
X148171500Y-88331100D02*
X148171500Y-93676500D01*
X155965400Y-125487600D02*
X155281500Y-125487600D01*
X155281500Y-125487600D02*
X148333300Y-118539400D01*
X158800000Y-122653000D02*
X155965400Y-125487600D01*
X148333300Y-116858400D02*
X145096000Y-116858400D01*
X145096000Y-116858400D02*
X140657500Y-112419900D01*
%TO.N,/IRQ*%
X162709900Y-118553905D02*
X162709900Y-115535695D01*
X149318200Y-125937700D02*
X162085200Y-125937700D01*
X163153800Y-122677500D02*
X162717900Y-122241600D01*
X162682905Y-125474800D02*
X163153800Y-125003905D01*
X162717900Y-118561905D02*
X162709900Y-118553905D01*
X153950800Y-101911600D02*
X153950800Y-92726000D01*
X162548100Y-125474800D02*
X162682905Y-125474800D01*
X155300200Y-91376600D02*
X155300200Y-90951100D01*
X153950800Y-92726000D02*
X155300200Y-91376600D01*
X162943100Y-115302495D02*
X162943100Y-110903900D01*
X162717900Y-122241600D02*
X162717900Y-118561905D01*
X162085200Y-125937700D02*
X162548100Y-125474800D01*
X162709900Y-115535695D02*
X162943100Y-115302495D01*
X163153800Y-125003905D02*
X163153800Y-122677500D01*
X162943100Y-110903900D02*
X153950800Y-101911600D01*
X148133000Y-124752500D02*
X149318200Y-125937700D01*
%TO.N,/D1*%
X150542300Y-80060400D02*
X150073200Y-80529500D01*
X150073200Y-82302900D02*
X152889000Y-85118700D01*
X152889000Y-85118700D02*
X152889000Y-91480700D01*
X150073200Y-80529500D02*
X150073200Y-82302900D01*
%TO.N,/D3*%
X149695200Y-118847700D02*
X149695200Y-103745900D01*
X155602000Y-124754500D02*
X149695200Y-118847700D01*
X148175500Y-102226200D02*
X147469700Y-102226200D01*
X149695200Y-103745900D02*
X148175500Y-102226200D01*
%TO.N,/D4*%
X154867300Y-80159200D02*
X152972300Y-82054200D01*
X152972300Y-82054200D02*
X152347600Y-82054200D01*
%TO.N,/D6*%
X147679500Y-84185500D02*
X147679500Y-81269700D01*
X153706400Y-78259800D02*
X156310000Y-75656200D01*
X160115000Y-124761700D02*
X160115000Y-122616800D01*
X160115000Y-122616800D02*
X159640800Y-122142600D01*
X157614500Y-111028600D02*
X147728500Y-101142600D01*
X149862500Y-78259800D02*
X153706400Y-78259800D01*
X138754400Y-101933400D02*
X141693900Y-101933400D01*
X159640800Y-118758500D02*
X157614500Y-116732200D01*
X147679500Y-81269700D02*
X147822400Y-81126800D01*
X147822400Y-80299900D02*
X149862500Y-78259800D01*
X159640800Y-122142600D02*
X159640800Y-118758500D01*
X147822400Y-81126800D02*
X147822400Y-80299900D01*
X142484700Y-89380300D02*
X147679500Y-84185500D01*
X142484700Y-101142600D02*
X142484700Y-89380300D01*
X147728500Y-101142600D02*
X142484700Y-101142600D01*
X141693900Y-101933400D02*
X142484700Y-101142600D01*
X157614500Y-116732200D02*
X157614500Y-111028600D01*
%TO.N,/D7*%
X161630000Y-124061300D02*
X161630000Y-123160000D01*
X161630000Y-123160000D02*
X160141000Y-121671000D01*
X160141000Y-121671000D02*
X160141000Y-113541300D01*
X144676300Y-97304100D02*
X143215000Y-97304100D01*
X158223600Y-110851400D02*
X144676300Y-97304100D01*
X160141000Y-113541300D02*
X158223600Y-111623900D01*
X158223600Y-111623900D02*
X158223600Y-110851400D01*
%TO.N,/XC.Vout*%
X152336900Y-77476800D02*
X154157700Y-75656000D01*
X145990000Y-80924200D02*
X145990000Y-79887900D01*
X138170400Y-87890800D02*
X139023400Y-87890800D01*
X148401100Y-77476800D02*
X152336900Y-77476800D01*
X139023400Y-87890800D02*
X145990000Y-80924200D01*
X145990000Y-79887900D02*
X148401100Y-77476800D01*
%TO.N,/Eon.A7*%
X158673700Y-110665000D02*
X143215000Y-95206300D01*
X162218100Y-114448600D02*
X161820100Y-114448600D01*
X161820100Y-114448600D02*
X158673700Y-111302200D01*
X143215000Y-95206300D02*
X143215000Y-91540600D01*
X158673700Y-111302200D02*
X158673700Y-110665000D01*
%TO.N,/Eon.A18*%
X143940100Y-91235000D02*
X143245500Y-90540400D01*
X143940100Y-95294800D02*
X143940100Y-91235000D01*
X161016700Y-112371400D02*
X143940100Y-95294800D01*
X143245500Y-90540400D02*
X143215000Y-90540400D01*
X161016700Y-112610700D02*
X161016700Y-112371400D01*
%TO.N,/Eon.A9*%
X149038800Y-86511700D02*
X149038800Y-85463400D01*
X151563700Y-89036600D02*
X149038800Y-86511700D01*
%TO.N,/Eon.A15*%
X154280000Y-90892400D02*
X154280000Y-91760200D01*
X162137300Y-86937900D02*
X158234500Y-86937900D01*
X158234500Y-86937900D02*
X154280000Y-90892400D01*
X154280000Y-91760200D02*
X153500700Y-92539500D01*
X153500700Y-92539500D02*
X153500700Y-103769900D01*
X153500700Y-103769900D02*
X154422900Y-104692100D01*
%TD*%
M02*
